<?xml version="1.0" encoding="UTF-8"?>
<svg version="1.1" xmlns="http://www.w3.org/2000/svg" width="500" height="500">
<path d="M0 0 C1.67778298 1.4958006 3.34272973 3.00393693 4.99951172 4.52294922 C6.34193305 5.73257001 7.73276553 6.88795593 9.12890625 8.03515625 C35.41088942 29.92977787 50.68786998 66.59922612 54.08666992 100.01879883 C57.65780674 142.17451522 43.24409046 180.80219979 16.5 212.875 C15.99984375 213.51179687 15.4996875 214.14859375 14.984375 214.8046875 C10.54883433 220.33636753 5.03004958 224.48752265 -0.5 228.875 C-1.27085937 229.535 -2.04171875 230.195 -2.8359375 230.875 C-18.15772346 243.84361064 -37.09035547 252.65974489 -56.25 258.25 C-57.06436523 258.48879883 -57.87873047 258.72759766 -58.71777344 258.97363281 C-69.03603604 261.81084708 -79.07560628 263.12018767 -89.75390625 262.578125 C-114.38834915 261.38295469 -133.05512813 264.88127492 -155.48974609 275.06738281 C-159.53992225 276.90561491 -163.62252349 278.6499675 -167.73828125 280.3359375 C-168.92075439 280.82626465 -170.10322754 281.3165918 -171.3215332 281.82177734 C-174.29854065 282.80824406 -176.40016286 283.11179564 -179.5 282.875 C-180.5 279.875 -180.5 279.875 -179.60717773 277.84130859 C-179.13739502 277.07641113 -178.6676123 276.31151367 -178.18359375 275.5234375 C-177.66603516 274.67136719 -177.14847656 273.81929688 -176.61523438 272.94140625 C-176.06158203 272.05324219 -175.50792969 271.16507812 -174.9375 270.25 C-174.41091797 269.38503906 -173.88433594 268.52007812 -173.34179688 267.62890625 C-170.25204825 262.58395562 -167.04097763 257.64307305 -163.68383789 252.77197266 C-162.33881697 250.78143084 -162.33881697 250.78143084 -161.5 247.875 C-162.3559375 247.61589844 -163.211875 247.35679687 -164.09375 247.08984375 C-186.45512925 239.11462707 -207.20313887 219.0178949 -220.5 199.875 C-220.88349609 199.33439941 -221.26699219 198.79379883 -221.66210938 198.23681641 C-232.44469694 182.93439209 -238.83739029 165.90905166 -243.5 147.875 C-243.84160156 146.60527344 -244.18320313 145.33554687 -244.53515625 144.02734375 C-248.92302299 124.29214774 -248.80307949 99.37596562 -243.5 79.875 C-243.31775879 79.2042041 -243.13551758 78.5334082 -242.94775391 77.84228516 C-240.47108342 68.92668521 -237.34618711 60.29473338 -233.5 51.875 C-232.99855469 50.76640625 -232.49710938 49.6578125 -231.98046875 48.515625 C-225.85726216 35.60956896 -217.76360911 24.80633096 -207.953125 14.484375 C-206.0290266 12.43772256 -204.24934495 10.37920804 -202.5 8.1875 C-198.45437452 3.4094768 -193.43263397 -0.31279812 -188.5 -4.125 C-187.77554688 -4.69992188 -187.05109375 -5.27484375 -186.3046875 -5.8671875 C-132.79609877 -45.95068229 -50.64485819 -43.82902342 0 0 Z " fill="#FCA865" transform="translate(347.5,123.125)"/>
<path d="M0 0 C5.78544086 2.00694094 11.23217946 4.41420873 16.6484375 7.265625 C17.51984375 7.71679688 18.39125 8.16796875 19.2890625 8.6328125 C33.99633669 16.81893681 46.7797496 30.95938458 51.6484375 47.265625 C52.09123047 48.62880859 52.09123047 48.62880859 52.54296875 50.01953125 C57.33277405 66.44484532 54.27632284 82.41001423 47.984375 97.94921875 C46.53481347 101.54769168 45.20072239 105.17446586 43.8984375 108.828125 C43.49109375 109.96378906 43.08375 111.09945312 42.6640625 112.26953125 C40.99458314 117.19449537 40.51823555 121.2150547 40.47265625 126.4609375 C40.4529241 127.90496574 40.43187848 129.3489765 40.40966797 130.79296875 C40.39852966 131.54433105 40.38739136 132.29569336 40.37591553 133.06982422 C40.15073937 146.14172985 39.85256702 158.7616524 35.6484375 171.265625 C35.39255859 172.02746094 35.13667969 172.78929687 34.87304688 173.57421875 C31.72455121 182.67315002 28.15936288 191.32194878 22.6484375 199.265625 C22.26751953 199.81734375 21.88660156 200.3690625 21.49414062 200.9375 C14.95996373 210.36121274 8.51664138 218.8883976 -0.3515625 226.265625 C-1.13917969 226.92949219 -1.92679687 227.59335937 -2.73828125 228.27734375 C-10.95321716 235.04789532 -19.50653749 240.22298188 -29.3515625 244.265625 C-28.021008 240.79432687 -26.50408366 237.44877915 -24.88916016 234.10107422 C-16.53601757 216.72886169 -11.41205723 197.52215021 -16.8515625 178.328125 C-17.61762471 176.28084376 -18.4550694 174.2592428 -19.3515625 172.265625 C-19.61469238 171.67765137 -19.87782227 171.08967773 -20.14892578 170.48388672 C-28.42663497 152.46218483 -41.58660193 139.58416038 -58.3515625 129.265625 C-72.11859881 120.70555007 -84.88245488 111.40646832 -93.3515625 97.265625 C-93.9290625 96.3375 -94.5065625 95.409375 -95.1015625 94.453125 C-101.29360021 78.66342883 -102.00177473 59.67506089 -95.89453125 43.74609375 C-87.15269016 24.027156 -70.23170261 9.2871324 -50.4609375 1.296875 C-46.27432476 -0.09164983 -42.11555181 -0.80209294 -37.75 -1.375 C-25.00744559 -3.28430783 -12.71774599 -3.84175113 0 0 Z " fill="#FDFDFB" transform="translate(273.3515625,124.734375)"/>
<path d="M0 0 C1.06895508 0.41846191 2.13791016 0.83692383 3.23925781 1.26806641 C11.8968705 4.68725491 20.47051006 8.2722405 29 12 C29.88929199 12.38623535 30.77858398 12.7724707 31.69482422 13.17041016 C39.11740913 16.46916414 45.07220026 19.40397702 48.23828125 27.3125 C48.48964844 28.199375 48.74101562 29.08625 49 30 C49.35707031 31.20398438 49.71414063 32.40796875 50.08203125 33.6484375 C55.48789314 55.94011328 46.90686622 76.48738812 37 96 C49.14662244 89.91009503 60.4236411 83.38600566 69.6953125 73.21484375 C71 72 71 72 73 72 C73.25523437 71.4328125 73.51046875 70.865625 73.7734375 70.28125 C75.14469788 67.73088037 76.76708599 65.72061435 78.625 63.5 C86.09824129 54.24999899 91.77476083 45.12326222 96 34 C96.5959341 32.57985059 97.1986228 31.16248596 97.8125 29.75 C98.204375 28.8425 98.59625 27.935 99 27 C100.75032844 27.14183696 102.50025534 27.28863429 104.25 27.4375 C105.22453125 27.51871094 106.1990625 27.59992188 107.203125 27.68359375 C110 28 110 28 111.74365234 28.50488281 C116.77045873 29.60793013 122.07191956 29.26676068 127.20458984 29.29516602 C128.63372787 29.30657983 130.06282696 29.32685948 131.49169922 29.35668945 C149.30241845 29.72765975 165.82183815 24.99113019 179.875 13.6875 C182 12 182 12 184 12 C184 11.34 184 10.68 184 10 C184.66 10 185.32 10 186 10 C183.91234103 29.55975868 170.10873997 47.76106045 157.54296875 62.09765625 C155.82124338 64.06269765 154.14082329 66.06457364 152.5 68.09765625 C150.09895113 70.88512392 147.6872645 73.09047519 144.8125 75.375 C140.69594077 78.64042445 140.69594077 78.64042445 136.66015625 82.00390625 C121.33732216 94.96938125 102.40873817 103.78500934 83.25 109.375 C82.02845215 109.73319824 82.02845215 109.73319824 80.78222656 110.09863281 C70.46396396 112.93584708 60.42439372 114.24518767 49.74609375 113.703125 C25.11165085 112.50795469 6.44487187 116.00627492 -15.98974609 126.19238281 C-20.03992225 128.03061491 -24.12252349 129.7749675 -28.23828125 131.4609375 C-29.42075439 131.95126465 -30.60322754 132.4415918 -31.8215332 132.94677734 C-34.79854065 133.93324406 -36.90016286 134.23679564 -40 134 C-41 131 -41 131 -40.10717773 128.96630859 C-39.63739502 128.20141113 -39.1676123 127.43651367 -38.68359375 126.6484375 C-38.16603516 125.79636719 -37.64847656 124.94429687 -37.11523438 124.06640625 C-36.56158203 123.17824219 -36.00792969 122.29007813 -35.4375 121.375 C-34.64762695 120.07755859 -34.64762695 120.07755859 -33.84179688 118.75390625 C-30.75204825 113.70895562 -27.54097763 108.76807305 -24.18383789 103.89697266 C-22.83881697 101.90643084 -22.83881697 101.90643084 -22 99 C-22.8559375 98.74089844 -23.711875 98.48179687 -24.59375 98.21484375 C-46.95512925 90.23962707 -67.70313887 70.1428949 -81 51 C-81.38349609 50.45939941 -81.76699219 49.91879883 -82.16210938 49.36181641 C-91.90816267 35.53042 -104 14.32644903 -104 -3 C-103.20335938 -3.11214844 -102.40671875 -3.22429687 -101.5859375 -3.33984375 C-98.87165409 -3.83953209 -96.3671324 -4.4339036 -93.7265625 -5.19140625 C-64.52895965 -13.25525647 -28.15955721 -11.13350703 0 0 Z " fill="#2A405B" transform="translate(208,272)"/>
<path d="M0 0 C1.06895508 0.41846191 2.13791016 0.83692383 3.23925781 1.26806641 C11.8968705 4.68725491 20.47051006 8.2722405 29 12 C29.88929199 12.38623535 30.77858398 12.7724707 31.69482422 13.17041016 C39.11740913 16.46916414 45.07220026 19.40397702 48.23828125 27.3125 C48.48964844 28.199375 48.74101562 29.08625 49 30 C49.35707031 31.20398438 49.71414063 32.40796875 50.08203125 33.6484375 C54.95957434 53.76153166 48.32263342 71.9987985 40 90 C27.24023594 83.69382649 14.67926748 77.1826064 2.40185547 69.97412109 C-1.78492578 67.51783286 -5.98185353 65.07921104 -10.18066406 62.64355469 C-11.8803211 61.65272587 -13.57622411 60.65535884 -15.26464844 59.64550781 C-36.56891563 46.91680369 -64.12692214 37.85004606 -89 39 C-93.28762773 30.51597066 -96.87273748 21.96324423 -99.875 12.9375 C-100.172854 12.04587158 -100.47070801 11.15424316 -100.77758789 10.2355957 C-102.20611716 5.8403447 -103.41053012 1.60239947 -104 -3 C-103.20335938 -3.11214844 -102.40671875 -3.22429687 -101.5859375 -3.33984375 C-98.87165409 -3.83953209 -96.3671324 -4.4339036 -93.7265625 -5.19140625 C-64.52895965 -13.25525647 -28.15955721 -11.13350703 0 0 Z " fill="#37718E" transform="translate(208,272)"/>
<path d="M0 0 C0.99 0.33 1.98 0.66 3 1 C3.66 0.67 4.32 0.34 5 0 C6.62165752 -0.12148305 8.24884327 -0.17543652 9.875 -0.1875 C11.17050781 -0.20876953 11.17050781 -0.20876953 12.4921875 -0.23046875 C15.1470592 0.01351479 16.67831586 0.75326052 19 2 C20.66621616 2.03874921 22.33394172 2.0450286 24 2 C24.495 2.495 24.495 2.495 25 3 C26.34141308 3.2019831 27.69159323 3.34664722 29.04296875 3.46484375 C29.86990234 3.54283203 30.69683594 3.62082031 31.54882812 3.70117188 C33.28822113 3.85695763 35.02780282 4.01065278 36.76757812 4.16210938 C41.48131997 4.61051637 45.51138059 5.41499789 50 7 C51.98849501 6.96843659 53.97716427 6.93620079 55.96484375 6.87109375 C59.37582355 7.08714429 61.96653769 8.48326885 65 10 C65 9.01 65 8.02 65 7 C65.66 7 66.32 7 67 7 C67.350625 8.258125 67.70125 9.51625 68.0625 10.8125 C74.24379558 29.18307939 90.21810709 39.78174121 105.84472656 49.69287109 C120.39073871 58.94245674 136.16037071 70.96240027 142 88 C137.43311114 86.61188789 133.33390817 84.71222052 129.125 82.5 C110.33078088 72.8935656 90.98400372 64.94512333 70 62 C68.95070313 61.814375 67.90140625 61.62875 66.8203125 61.4375 C45.44646938 58.07006739 22.76020816 58.33482112 1.96582031 64.42749023 C1.31709961 64.61641846 0.66837891 64.80534668 0 65 C-0.68223633 65.25144775 -1.36447266 65.50289551 -2.06738281 65.76196289 C-4 66 -4 66 -5.67651367 64.91162109 C-10.9798736 57.25153841 -9.2812219 43.72470568 -9.20581055 34.65771484 C-9.18724584 32.3433152 -9.18530371 30.02931103 -9.18554688 27.71484375 C-9.18064081 26.23437153 -9.17481652 24.75390201 -9.16796875 23.2734375 C-9.16685593 22.58599457 -9.1657431 21.89855164 -9.16459656 21.1902771 C-9.13455475 18.18358281 -8.95905295 15.87715884 -8 13 C-7.34 13 -6.68 13 -6 13 C-5.67 9.37 -5.34 5.74 -5 2 C-3.68 2 -2.36 2 -1 2 C-0.67 1.34 -0.34 0.68 0 0 Z " fill="#F2526F" transform="translate(110,204)"/>
<path d="M0 0 C2.75837688 4.78896449 2.5334201 9.59248907 2.75 15 C2.80542969 15.99773437 2.86085938 16.99546875 2.91796875 18.0234375 C2.96050781 18.98507813 3.00304687 19.94671875 3.046875 20.9375 C3.08651367 21.81277344 3.12615234 22.68804687 3.16699219 23.58984375 C2.98478239 26.21963192 2.28305105 27.72665817 1 30 C0.58979839 31.9910424 0.58979839 31.9910424 0.4375 34 C0.15105311 36.75705133 -0.30375791 39.31449478 -1 42 C-1 42.99 -1 43.98 -1 45 C-1.62390625 45.22816406 -2.2478125 45.45632812 -2.890625 45.69140625 C-5.68539745 47.42520027 -5.92125225 48.80207103 -6.75 51.9375 C-7.11351562 53.25041016 -7.11351562 53.25041016 -7.484375 54.58984375 C-8.10460218 57.07815344 -8.10460218 57.07815344 -8 60 C-3.46457036 59.93056646 1.0699856 59.84234047 5.60473633 59.73754883 C7.14369926 59.70453079 8.68277656 59.67642878 10.22192383 59.65356445 C21.39352288 59.57178655 21.39352288 59.57178655 32.12719727 56.7512207 C35.15023805 55.53861524 38.32928438 54.96815354 41.5 54.25 C48.37360562 52.53053034 52.80269826 49.72048507 58 45 C59.78598945 43.5969099 61.57776432 42.20115548 63.375 40.8125 C65.83054868 38.89873111 67.80470674 37.26268319 69.6640625 34.76171875 C70.32535156 33.88966797 70.32535156 33.88966797 71 33 C71.66 33 72.32 33 73 33 C76.31857146 57.4744645 74.19779914 79.17920169 68 103 C67.01 103 66.02 103 65 103 C65 103.66 65 104.32 65 105 C49.7059931 117.77727159 33.49619339 123.18631424 13.77490234 123.24023438 C11.66591995 123.24981413 9.55796761 123.28081183 7.44921875 123.3125 C-2.06508798 123.38443234 -10.73790836 122.22370695 -20 120 C-19.65066406 118.87851562 -19.30132812 117.75703125 -18.94140625 116.6015625 C-15.19327063 103.46527871 -14.39852681 91.001762 -14.54125977 77.43408203 C-14.57286717 63.65947492 -10.56930738 52.345769 -5.1328125 39.74609375 C-1.0225425 29.78223233 0.16273614 20.27234613 0.0625 9.5625 C0.05798828 8.64017578 0.05347656 7.71785156 0.04882812 6.76757812 C0.03713938 4.51164952 0.02075455 2.25586033 0 0 Z " fill="#EB4671" transform="translate(327,179)"/>
<path d="M0 0 C0.66 0 1.32 0 2 0 C-0.08765897 19.55975868 -13.89126003 37.76106045 -26.45703125 52.09765625 C-28.17875662 54.06269765 -29.85917671 56.06457364 -31.5 58.09765625 C-33.90104887 60.88512392 -36.3127355 63.09047519 -39.1875 65.375 C-43.30405923 68.64042445 -43.30405923 68.64042445 -47.33984375 72.00390625 C-54.89469721 78.39647457 -63.36240742 83.23247123 -72 88 C-72.71381836 88.41443359 -73.42763672 88.82886719 -74.16308594 89.25585938 C-74.85950195 89.64064453 -75.55591797 90.02542969 -76.2734375 90.421875 C-77.20422119 90.9492627 -77.20422119 90.9492627 -78.15380859 91.48730469 C-80 92 -80 92 -82.23291016 91.09863281 C-82.8160498 90.73608398 -83.39918945 90.37353516 -84 90 C-83.01 89.67 -82.02 89.34 -81 89 C-81.8343457 88.9906543 -82.66869141 88.98130859 -83.52832031 88.97167969 C-122.41895441 88.42603393 -122.41895441 88.42603393 -137 82 C-133.44891625 79.11880934 -129.81602189 76.38626016 -126.125 73.6875 C-121.80427313 70.47356031 -117.93082845 67.19277449 -114.3046875 63.21484375 C-113 62 -113 62 -111 62 C-110.74476563 61.4328125 -110.48953125 60.865625 -110.2265625 60.28125 C-108.85530212 57.73088037 -107.23291401 55.72061435 -105.375 53.5 C-97.90175871 44.24999899 -92.22523917 35.12326222 -88 24 C-87.4040659 22.57985059 -86.8013772 21.16248596 -86.1875 19.75 C-85.5996875 18.38875 -85.5996875 18.38875 -85 17 C-83.24967156 17.14183696 -81.49974466 17.28863429 -79.75 17.4375 C-78.28820312 17.55931641 -78.28820312 17.55931641 -76.796875 17.68359375 C-74 18 -74 18 -72.25634766 18.50488281 C-67.22954127 19.60793013 -61.92808044 19.26676068 -56.79541016 19.29516602 C-55.36627213 19.30657983 -53.93717304 19.32685948 -52.50830078 19.35668945 C-34.69758155 19.72765975 -18.17816185 14.99113019 -4.125 3.6875 C-2 2 -2 2 0 2 C0 1.34 0 0.68 0 0 Z " fill="#315775" transform="translate(392,282)"/>
<path d="M0 0 C3 1 6 2 9 3 C11.7813654 3.09719057 14.53185227 3.13917492 17.3125 3.125 C18.43301758 3.13080078 18.43301758 3.13080078 19.57617188 3.13671875 C22.94210426 3.13080842 26.02545133 2.99567416 29.35546875 2.4296875 C32.49758131 1.91915222 34.19177087 2.59588543 37 4 C37 3.01 37 2.02 37 1 C37.66 1.33 38.32 1.66 39 2 C39.625 4.0625 39.625 4.0625 40 6 C40.98097656 5.96261719 41.96195313 5.92523438 42.97265625 5.88671875 C47.29922455 5.88998244 51.25442854 6.77708627 55.4375 7.8125 C56.14970703 7.97814453 56.86191406 8.14378906 57.59570312 8.31445312 C62.56492822 9.51049731 67.242888 11.14746795 72 13 C74.49489064 13.91057384 76.99771862 14.79726528 79.5 15.6875 C80.7271875 16.12449219 81.954375 16.56148438 83.21875 17.01171875 C84.59546875 17.50091797 84.59546875 17.50091797 86 18 C86 18.66 86 19.32 86 20 C86.87011719 20.27328125 87.74023438 20.5465625 88.63671875 20.828125 C97.45679521 23.90132237 105.39658906 28.64048316 113 34 C114.485 34.99 114.485 34.99 116 36 C116 36.66 116 37.32 116 38 C117.36125 38.433125 117.36125 38.433125 118.75 38.875 C121.32202908 39.76531776 123.61346766 40.71494413 126 42 C126 42.99 126 43.98 126 45 C126.99 44.67 127.98 44.34 129 44 C129.66 44.99 130.32 45.98 131 47 C131.969375 47.309375 132.93875 47.61875 133.9375 47.9375 C137.29561976 49.10256196 138.28585983 49.9526397 140 53 C140 53.66 140 54.32 140 55 C140.66 55.33 141.32 55.66 142 56 C141.67 57.98 141.34 59.96 141 62 C140.34 62 139.68 62 139 62 C139 63.32 139 64.64 139 66 C138.34 66 137.68 66 137 66 C136.67 67.32 136.34 68.64 136 70 C132.00609621 69.42944232 129.36917472 68.18996357 126 66 C125.071875 65.484375 124.14375 64.96875 123.1875 64.4375 C122.465625 63.963125 121.74375 63.48875 121 63 C121 62.34 121 61.68 121 61 C119.865625 60.9175 118.73125 60.835 117.5625 60.75 C108.49798022 59.58767951 100.52786698 54.16992535 92.75 49.6875 C88.84048004 47.44550998 84.92285207 45.21857144 81 43 C79.97366455 42.40815918 78.9473291 41.81631836 77.88989258 41.20654297 C69.93173942 36.73695355 61.86340079 33.53750765 53.1875 30.75 C52.20295334 30.42832855 52.20295334 30.42832855 51.19851685 30.10015869 C37.03605894 25.48235448 24.02986927 22.30512591 9 23 C7.87327825 20.60496313 6.74857442 18.2090129 5.625 15.8125 C5.14933594 14.80219727 5.14933594 14.80219727 4.6640625 13.77148438 C0 3.81176758 0 3.81176758 0 0 Z " fill="#35B4C9" transform="translate(110,288)"/>
<path d="M0 0 C0.33 1.32 0.66 2.64 1 4 C2.41309448 4.07516846 2.41309448 4.07516846 3.85473633 4.15185547 C7.40179644 4.34389445 10.94839456 4.54223096 14.49487305 4.74462891 C16.020127 4.83042745 17.54551816 4.91382595 19.07104492 4.99462891 C30.41829759 5.59792885 41.32088024 6.61963879 52.1875 10.125 C53.29480469 10.47820312 54.40210938 10.83140625 55.54296875 11.1953125 C56.75919922 11.59363281 56.75919922 11.59363281 58 12 C58.04898438 12.9178125 58.09796875 13.835625 58.1484375 14.78125 C58.54680921 22.70033345 58.54680921 22.70033345 60.125 30.4375 C61.13104602 34.53354453 60.84826849 36.92831123 60 41 C57.67823994 40.54854666 55.37267368 40.09887261 53.0859375 39.4921875 C50.9992236 38.9998168 49.00878763 38.755407 46.875 38.5625 C43.58539975 38.2244171 40.4183917 37.70236776 37.1875 37 C32.26764217 35.95569055 27.38558739 35.55910036 22.37109375 35.24609375 C20 35 20 35 19 34 C17.00041636 33.95919217 14.99954746 33.95745644 13 34 C13 33.34 13 32.68 13 32 C10.89590361 31.97298592 8.79170822 31.95359777 6.6875 31.9375 C5.51574219 31.92589844 4.34398437 31.91429687 3.13671875 31.90234375 C-0.03059195 31.85100102 -0.03059195 31.85100102 -3 33 C-3 32.34 -3 31.68 -3 31 C-3.66 31 -4.32 31 -5 31 C-5.495 32.485 -5.495 32.485 -6 34 C-7.32 33.67 -8.64 33.34 -10 33 C-10.33 36.63 -10.66 40.26 -11 44 C-11.66 44 -12.32 44 -13 44 C-12.29157085 29.12298777 -6.84788275 13.16419469 0 0 Z " fill="#FCA963" transform="translate(115,173)"/>
<path d="M0 0 C2.75837688 4.78896449 2.5334201 9.59248907 2.75 15 C2.80542969 15.99773437 2.86085938 16.99546875 2.91796875 18.0234375 C2.96050781 18.98507813 3.00304687 19.94671875 3.046875 20.9375 C3.08651367 21.81277344 3.12615234 22.68804687 3.16699219 23.58984375 C2.98478239 26.21963192 2.28305105 27.72665817 1 30 C0.58979839 31.9910424 0.58979839 31.9910424 0.4375 34 C0.15105311 36.75705133 -0.30375791 39.31449478 -1 42 C-1 42.99 -1 43.98 -1 45 C-1.93585938 45.34224609 -1.93585938 45.34224609 -2.890625 45.69140625 C-5.68539745 47.42520027 -5.92125225 48.80207103 -6.75 51.9375 C-7.11351562 53.25041016 -7.11351562 53.25041016 -7.484375 54.58984375 C-8.10460218 57.07815344 -8.10460218 57.07815344 -8 60 C-3.46457036 59.93056646 1.0699856 59.84234047 5.60473633 59.73754883 C7.14369926 59.70453079 8.68277656 59.67642878 10.22192383 59.65356445 C21.35481601 59.57359288 21.35481601 59.57359288 32.05151367 56.76879883 C36.15011658 55.15164552 40.56803931 54.44780011 44.86914062 53.5390625 C51.06122147 52.16179019 56.1208382 49.8834294 61.1875 46 C61.84105469 45.505 62.49460937 45.01 63.16796875 44.5 C64.89362758 43.08709384 66.455426 41.60673952 68 40 C69.485 40.495 69.485 40.495 71 41 C71.25127207 42.5590978 71.47504458 44.12264016 71.6875 45.6875 C71.81511719 46.55761719 71.94273437 47.42773438 72.07421875 48.32421875 C71.97723319 51.8208034 71.18380551 53.26914018 69 56 C66.79081853 57.49929025 64.71930436 58.76571413 62.375 60 C61.0989284 60.69395537 59.82288665 61.38796565 58.546875 62.08203125 C57.93134766 62.41154785 57.31582031 62.74106445 56.68164062 63.08056641 C54.61638486 64.2097408 52.63022875 65.4556056 50.625 66.6875 C36.10117173 74.67830514 19.13240422 76.35834662 2.875 76.1875 C1.67101562 76.18685547 0.46703125 76.18621094 -0.7734375 76.18554688 C-9.57659096 76.14113635 -9.57659096 76.14113635 -13 75 C-13.72741584 64.36356389 -12.10969067 56.84310109 -8 47 C-1.40528722 30.86890956 0.46882886 17.25984775 0 0 Z " fill="#DB2F76" transform="translate(327,179)"/>
<path d="M0 0 C5.36016111 0.61510046 8.78430008 2.93192082 12.8125 6.4375 C15.56768068 10.27805489 16.37458222 13.66014581 16.15625 18.41796875 C15.26444036 23.6573504 12.81573044 26.65498026 8.6875 29.875 C3.62673344 32.38366325 -1.88144327 32.44314463 -7.2421875 30.8125 C-11.54827097 28.74262297 -13.66264382 25.86081889 -15.53125 21.51953125 C-16.93877455 17.05399206 -16.62992628 13.66646189 -15.0625 9.3125 C-12.51431188 5.40527821 -9.65134322 2.47072458 -5.25 0.625 C-3.49488047 0.46544368 -1.74598765 0.23964536 0 0 Z " fill="#FA8160" transform="translate(219.1875,169.5625)"/>
<path d="M0 0 C18.04293921 0.02072985 34.42836226 1.1234273 51.51245117 7.19067383 C52.00745117 15.11067383 52.00745117 15.11067383 52.51245117 23.19067383 C42.47645994 20.50498603 42.47645994 20.50498603 37.62963867 18.98364258 C21.85607782 14.07090386 5.89956827 11.95384466 -10.48754883 10.19067383 C-9.82754883 9.20067383 -9.16754883 8.21067383 -8.48754883 7.19067383 C-8.12835562 5.19515601 -7.79258314 3.19518503 -7.48754883 1.19067383 C-5.53858795 -0.75828705 -2.59479049 0.02324588 0 0 Z " fill="#F8596A" transform="translate(121.487548828125,177.809326171875)"/>
<path d="M0 0 C4.19831403 2.36632246 7.16995992 4.62756567 9.4375 8.9375 C10.36550335 13.7448616 9.86599888 17.71966107 8.25 22.3125 C5.57198157 26.19100945 2.91375233 28.44541589 -1.5625 29.9375 C-6.58763073 30.46509548 -10.44300512 30.50742466 -15 28.1875 C-18.89446897 24.76796627 -21.19040728 21.97802909 -21.8359375 16.703125 C-22.05776708 11.20857698 -21.64169638 7.62522265 -18.046875 3.34375 C-12.61130939 -1.80573321 -6.92445039 -2.06518696 0 0 Z " fill="#FB7E61" transform="translate(288.5625,171.0625)"/>
<path d="M0 0 C7.31187298 6.27005556 7.31187298 6.27005556 9.86425781 10.09863281 C7.92675781 9.72363281 7.92675781 9.72363281 5.86425781 9.09863281 C5.53425781 8.43863281 5.20425781 7.77863281 4.86425781 7.09863281 C2.83962526 6.4464999 2.83962526 6.4464999 0.86425781 6.09863281 C0.86425781 5.43863281 0.86425781 4.77863281 0.86425781 4.09863281 C-0.12574219 3.76863281 -1.11574219 3.43863281 -2.13574219 3.09863281 C-2.13574219 2.43863281 -2.13574219 1.77863281 -2.13574219 1.09863281 C-2.71324219 0.80988281 -3.29074219 0.52113281 -3.88574219 0.22363281 C-5.96907552 -0.81803385 -8.05240885 -1.85970052 -10.13574219 -2.90136719 C-10.13574219 -3.56136719 -10.13574219 -4.22136719 -10.13574219 -4.90136719 C-10.94011719 -5.02511719 -10.94011719 -5.02511719 -11.76074219 -5.15136719 C-15.0091491 -6.1771799 -17.42326077 -7.86700613 -20.13574219 -9.90136719 C-20.13574219 -10.56136719 -20.13574219 -11.22136719 -20.13574219 -11.90136719 C-20.94011719 -11.98386719 -21.74449219 -12.06636719 -22.57324219 -12.15136719 C-27.09508424 -13.10333394 -30.9827692 -14.91716898 -35.13574219 -16.90136719 C-35.13574219 -17.56136719 -35.13574219 -18.22136719 -35.13574219 -18.90136719 C-36.03035156 -19.07152344 -36.92496094 -19.24167969 -37.84667969 -19.41699219 C-39.05582031 -19.65933594 -40.26496094 -19.90167969 -41.51074219 -20.15136719 C-42.69410156 -20.38339844 -43.87746094 -20.61542969 -45.09667969 -20.85449219 C-48.1770207 -21.55154299 -50.88646278 -22.62968279 -53.77246094 -23.90527344 C-59.89047694 -26.43714777 -66.0249118 -26.98684922 -72.57324219 -27.58886719 C-74.88469725 -27.81937593 -77.19591001 -28.05233153 -79.50683594 -28.28808594 C-80.51673584 -28.38307373 -81.52663574 -28.47806152 -82.56713867 -28.57592773 C-85.13574219 -28.90136719 -85.13574219 -28.90136719 -88.13574219 -29.90136719 C-99.15034867 -30.51133475 -109.33574925 -29.6723393 -120.10302734 -27.31591797 C-122.22603286 -26.88295336 -124.34932996 -26.53630208 -126.49121094 -26.20996094 C-135.3669611 -24.84574712 -142.93321533 -22.70253817 -151.13574219 -18.90136719 C-152.48407031 -18.38582996 -153.83782322 -17.8840965 -155.19824219 -17.40136719 C-166.21140178 -13.31464466 -166.21140178 -13.31464466 -175.13574219 -5.90136719 C-179.23976072 -2.90654285 -183.24258021 -1.97952152 -188.13574219 -0.90136719 C-184.26969276 -5.12844846 -180.21541279 -7.93509779 -175.26074219 -10.77636719 C-174.51260254 -11.20908936 -173.76446289 -11.64181152 -172.99365234 -12.08764648 C-119.27748851 -42.71369087 -48.46372762 -40.36635692 0 0 Z " fill="#E5DC98" transform="translate(346.1357421875,121.9013671875)"/>
<path d="M0 0 C6.32233812 2.27604172 11.50901362 6.20061334 17 10 C17.97195312 10.66773438 18.94390625 11.33546875 19.9453125 12.0234375 C31.39397033 20.09171168 43.32686544 31.36574478 48 45 C43.43339033 43.61197275 39.33307719 41.71362394 35.125 39.5 C24.39047674 33.97610622 13.17778095 29.53607343 2 25 C2 24.67 2 24.34 2 24 C3.423125 24.2165625 3.423125 24.2165625 4.875 24.4375 C9.56740347 25.11197278 14.28134412 25.55376896 19 26 C19.33 26.99 19.66 27.98 20 29 C20.66 28.34 21.32 27.68 22 27 C22 26.34 22 25.68 22 25 C21.34 24.34 20.68 23.68 20 23 C20.99 23 21.98 23 23 23 C23 22.34 23 21.68 23 21 C22.34 21 21.68 21 21 21 C20.34 19.35 19.68 17.7 19 16 C17.35 16.33 15.7 16.66 14 17 C14 16.01 14 15.02 14 14 C12.05263153 9.90027691 10.01767292 8.06312934 6 6 C5.67 6.66 5.34 7.32 5 8 C4.01 7.67 3.02 7.34 2 7 C0.8125 3.4375 0.8125 3.4375 0 0 Z " fill="#D53873" transform="translate(204,247)"/>
<path d="M0 0 C25.62390335 -0.6523908 51.7969707 -0.56920575 76 9 C77.06895508 9.41846191 78.13791016 9.83692383 79.23925781 10.26806641 C87.8968705 13.68725491 96.47051006 17.2722405 105 21 C105.88929199 21.38623535 106.77858398 21.7724707 107.69482422 22.17041016 C115.09669244 25.4599572 121.27511941 28.44398354 124.34765625 36.390625 C125.39457062 40.57828248 125.89908801 44.68830572 126 49 C121.32894208 47.44298069 117.91294315 44.91552627 114 42 C114.99 41.67 115.98 41.34 117 41 C116.979375 39.700625 116.95875 38.40125 116.9375 37.0625 C116.91600546 35.70834367 116.92851801 34.35243917 117 33 C117.33 32.67 117.66 32.34 118 32 C117.34 32 116.68 32 116 32 C115.505 31.01 115.505 31.01 115 30 C112.6859378 29.26924352 110.35171131 28.59861742 108 28 C108 27.01 108 26.02 108 25 C104.69265585 23.58256679 101.59436764 22.36865309 98 22 C95.84971696 22.94978897 95.84971696 22.94978897 94 24 C93.34 23.67 92.68 23.34 92 23 C92 21.35 92 19.7 92 18 C89.36 17.34 86.72 16.68 84 16 C84 15.34 84 14.68 84 14 C83.4225 14.20625 82.845 14.4125 82.25 14.625 C79.44563145 15.09239476 78.34613181 14.53712084 76 13 C75.505 12.01 75.505 12.01 75 11 C72.67284 10.62599214 70.33882138 10.29235267 68 10 C67.505 9.505 67.505 9.505 67 9 C64.52010985 8.62523502 62.05204807 8.29424021 59.5625 8 C52.26552984 7.13276492 52.26552984 7.13276492 50 6 C50 5.34 50 4.68 50 4 C48.87980469 4.01933594 47.75960937 4.03867187 46.60546875 4.05859375 C41.79868976 4.05753894 37.08748695 3.57473491 32.3125 3.0625 C21.55480878 1.96574356 10.80287626 1.41591621 0 1 C0 0.67 0 0.34 0 0 Z " fill="#4A3959" transform="translate(132,263)"/>
<path d="M0 0 C2.75837688 4.78896449 2.5334201 9.59248907 2.75 15 C2.80542969 15.99773437 2.86085938 16.99546875 2.91796875 18.0234375 C2.96050781 18.98507813 3.00304687 19.94671875 3.046875 20.9375 C3.08651367 21.81277344 3.12615234 22.68804687 3.16699219 23.58984375 C2.98478239 26.21963192 2.28305105 27.72665817 1 30 C0.58979839 31.9910424 0.58979839 31.9910424 0.4375 34 C0.15105311 36.75705133 -0.30375791 39.31449478 -1 42 C-1 42.99 -1 43.98 -1 45 C-1.93585938 45.34224609 -1.93585938 45.34224609 -2.890625 45.69140625 C-5.68539745 47.42520027 -5.92125225 48.80207103 -6.75 51.9375 C-7.11351562 53.25041016 -7.11351562 53.25041016 -7.484375 54.58984375 C-8.10460218 57.07815344 -8.10460218 57.07815344 -8 60 C-3.46457036 59.93056646 1.0699856 59.84234047 5.60473633 59.73754883 C7.14369926 59.70453079 8.68277656 59.67642878 10.22192383 59.65356445 C18.63790278 59.52518048 26.09442276 59.21582803 34 56 C36.33832961 55.52969686 38.62531992 55.25262554 41 55 C38.81385576 57.18614424 37.46120051 57.68256535 34.5625 58.625 C33.78003906 58.88539063 32.99757813 59.14578125 32.19140625 59.4140625 C30 60 30 60 27 60 C27 60.66 27 61.32 27 62 C18.81353269 63.15136362 10.68490646 63.11414983 2.4375 63.0625 C1.03320473 63.05747366 -0.3710923 63.05291276 -1.77539062 63.04882812 C-5.18363903 63.03711593 -8.5917964 63.02071372 -12 63 C-11.52745458 56.50569329 -10.28713651 51.47394864 -7.625 45.5625 C-6.98621291 44.07826896 -6.35077005 42.59259396 -5.71875 41.10546875 C-5.41839844 40.3995459 -5.11804688 39.69362305 -4.80859375 38.96630859 C-0.83113976 29.29408201 0.15961416 19.93877497 0.0625 9.5625 C0.05798828 8.64017578 0.05347656 7.71785156 0.04882812 6.76757812 C0.03713938 4.51164952 0.02075455 2.25586033 0 0 Z " fill="#D8366A" transform="translate(327,179)"/>
<path d="M0 0 C0.99 0.66 1.98 1.32 3 2 C1.625 4 1.625 4 0 6 C-0.66 6 -1.32 6 -2 6 C-2.309375 7.1446875 -2.309375 7.1446875 -2.625 8.3125 C-4 11 -4 11 -7.0625 12.4375 C-8.031875 12.953125 -9.00125 13.46875 -10 14 C-10.97474816 17.08961458 -10.97474816 17.08961458 -11 20 C-11.66 19.67 -12.32 19.34 -13 19 C-12.814375 19.598125 -12.62875 20.19625 -12.4375 20.8125 C-12 23 -12 23 -13 26 C-8.97843547 26.73880732 -5.10111964 27.1578846 -1.015625 27.28125 C0.63373047 27.33732422 0.63373047 27.33732422 2.31640625 27.39453125 C4.62107907 27.46532325 6.92576687 27.5356293 9.23046875 27.60546875 C10.87208984 27.66154297 10.87208984 27.66154297 12.546875 27.71875 C13.54557617 27.74904297 14.54427734 27.77933594 15.57324219 27.81054688 C18 28 18 28 20 29 C17.32195634 31.67804366 9.80425277 30.30976451 6.21508789 30.32568359 C-5.2096672 30.20286633 -17.4661313 28.70526932 -28 24 C-24.44891625 21.11880934 -20.81602189 18.38626016 -17.125 15.6875 C-12.80427313 12.47356031 -8.93082845 9.19277449 -5.3046875 5.21484375 C-4 4 -4 4 -2 4 C-1.34 2.68 -0.68 1.36 0 0 Z " fill="#377F9C" transform="translate(283,340)"/>
<path d="M0 0 C1.4540625 0.9590625 1.4540625 0.9590625 2.9375 1.9375 C6.47800907 3.95156204 9.37966204 4.4962701 13.40234375 4.79296875 C16.52278775 5.04166579 19.59146313 5.47608836 22.6875 5.9375 C23.74324219 6.09089844 24.79898438 6.24429687 25.88671875 6.40234375 C29.05131423 7.00985079 31.96952493 7.91411763 35 9 C35 9.66 35 10.32 35 11 C36.65 11 38.3 11 40 11 C40 11.66 40 12.32 40 13 C35.46407007 12.56385289 31.26723195 11.84082073 26.875 10.625 C4.14971244 4.90138539 -24.55939677 1.80393079 -47.234375 9.125 C-50 10 -50 10 -54 10 C-54 9.34 -54 8.68 -54 8 C-52.02 7.67 -50.04 7.34 -48 7 C-48 6.34 -48 5.68 -48 5 C-37.33498133 3.17935188 -26.91725665 2.59567234 -16.125 2.375 C-14.55076273 2.33669107 -12.97654352 2.29763261 -11.40234375 2.2578125 C-7.60171434 2.16326796 -3.80098818 2.0787471 0 2 C0 1.34 0 0.68 0 0 Z " fill="#CA4178" transform="translate(166,258)"/>
<path d="M0 0 C0 4.05345102 -1.58160112 5.8215329 -4 9 C-4.99 9.33 -5.98 9.66 -7 10 C-7.66 10.66 -8.32 11.32 -9 12 C-10.32475567 12.36593893 -11.66002109 12.69447519 -13 13 C-14.6127707 13.6240369 -16.21660234 14.27149546 -17.8125 14.9375 C-35.13152015 21.9002991 -53.400066 22.41634243 -71.59765625 19.33984375 C-75.26241336 18.97378879 -78.38793932 19.34200678 -82 20 C-82.33 18.35 -82.66 16.7 -83 15 C-81.24967156 15.14183696 -79.49974466 15.28863429 -77.75 15.4375 C-76.28820312 15.55931641 -76.28820312 15.55931641 -74.796875 15.68359375 C-72 16 -72 16 -70.25634766 16.50488281 C-65.22954127 17.60793013 -59.92808044 17.26676068 -54.79541016 17.29516602 C-53.36627213 17.30657983 -51.93717304 17.32685948 -50.50830078 17.35668945 C-31.66160476 17.74923758 -14.54489994 12.27225932 0 0 Z " fill="#4E385C" transform="translate(390,284)"/>
<path d="M0 0 C0 0.66 0 1.32 0 2 C0.69867188 2.06058594 1.39734375 2.12117188 2.1171875 2.18359375 C3.48230469 2.30927734 3.48230469 2.30927734 4.875 2.4375 C5.77992188 2.51871094 6.68484375 2.59992188 7.6171875 2.68359375 C10 3 10 3 12 4 C12.33 3.34 12.66 2.68 13 2 C14.5 3.375 14.5 3.375 16 5 C16 5.66 16 6.32 16 7 C16.556875 7.103125 17.11375 7.20625 17.6875 7.3125 C20.47129258 8.14011401 22.59851873 9.37737752 25 11 C25.495 11.99 25.495 11.99 26 13 C22.55745806 11.94075633 19.35410317 10.69926527 16.125 9.125 C5.65979898 4.50084141 -4.60705963 2.64505093 -16 2.625 C-16.87172852 2.62338867 -17.74345703 2.62177734 -18.64160156 2.62011719 C-24.0724809 2.71386079 -28.77796119 3.51524734 -34 5 C-35.258125 5.268125 -36.51625 5.53625 -37.8125 5.8125 C-44.12220163 7.38369052 -50.23387647 10.23973957 -55.70703125 13.72265625 C-56.46371094 14.14417969 -57.22039062 14.56570312 -58 15 C-58.66 14.67 -59.32 14.34 -60 14 C-48.84824229 5.86470134 -39.50692123 0.89222434 -25.5 0.375 C-24.19627441 0.31807983 -24.19627441 0.31807983 -22.86621094 0.26000977 C-15.24200109 -0.04822974 -7.62928471 -0.1040357 0 0 Z " fill="#EEC37D" transform="translate(266,120)"/>
<path d="M0 0 C1.67299959 0.65061095 3.33859237 1.32033324 5 2 C5.7425 2.28875 6.485 2.5775 7.25 2.875 C9 4 9 4 9.71264648 5.79980469 C10.06960536 8.53295118 9.5025321 9.84070009 8.34765625 12.328125 C7.80141602 13.52695312 7.80141602 13.52695312 7.24414062 14.75 C6.85419922 15.575 6.46425781 16.4 6.0625 17.25 C5.67642578 18.09046875 5.29035156 18.9309375 4.89257812 19.796875 C3.93865013 21.86960742 2.97423909 23.93675627 2 26 C-5.85249991 22.11911108 -13.6906675 18.21360604 -21.4375 14.125 C-22.48808594 13.57070313 -23.53867188 13.01640625 -24.62109375 12.4453125 C-27 11 -27 11 -28 9 C-27.01 9.433125 -27.01 9.433125 -26 9.875 C-23.57615931 10.78394026 -21.3854356 11.3863158 -18.875 11.9375 C-15.63525773 12.7051255 -14.2613209 13.53310447 -12 16 C-11.01 16.33 -10.02 16.66 -9 17 C-6.00126539 17.9995782 -5.09709925 18.80303889 -3 21 C-2.01 21 -1.02 21 0 21 C0.33 20.01 0.66 19.02 1 18 C1.66 18 2.32 18 3 18 C3 16.68 3 15.36 3 14 C3.66 14 4.32 14 5 14 C5.74737188 8.02102497 3.3231898 4.67620279 0 0 Z " fill="#4092A4" transform="translate(246,336)"/>
<path d="M0 0 C19.93037421 5.69439263 37.34031525 17.64060674 52 32 C51.01 32.33 50.02 32.66 49 33 C48.34 32.01 47.68 31.02 47 30 C44.94074861 29.27617533 44.94074861 29.27617533 43 29 C43 28.34 43 27.68 43 27 C42.01 26.67 41.02 26.34 40 26 C40 25.34 40 24.68 40 24 C39.4225 23.71125 38.845 23.4225 38.25 23.125 C36.16666667 22.08333333 34.08333333 21.04166667 32 20 C32 19.34 32 18.68 32 18 C31.46375 17.9175 30.9275 17.835 30.375 17.75 C27.12659309 16.72418729 24.71248141 15.03436106 22 13 C22 12.34 22 11.68 22 11 C21.195625 10.9175 20.39125 10.835 19.5625 10.75 C15.04065795 9.79803325 11.15297299 7.98419821 7 6 C7 5.34 7 4.68 7 4 C4.69 3.34 2.38 2.68 0 2 C0 1.34 0 0.68 0 0 Z " fill="#E1D897" transform="translate(304,99)"/>
<path d="M0 0 C23.16097232 8.03442723 23.16097232 8.03442723 28.6484375 16.265625 C27.9884375 16.595625 27.3284375 16.925625 26.6484375 17.265625 C26.6484375 16.605625 26.6484375 15.945625 26.6484375 15.265625 C26.14828125 15.01683594 25.648125 14.76804688 25.1328125 14.51171875 C23.0974001 13.49081222 21.06757028 12.46027869 19.0390625 11.42578125 C17.65891048 10.72645135 16.27870047 10.02723589 14.8984375 9.328125 C14.22039062 8.98072266 13.54234375 8.63332031 12.84375 8.27539062 C-2.23631221 0.66368622 -17.83864303 -1.43087448 -34.58984375 0.7734375 C-37.58133749 1.1648479 -40.34674175 1.37507532 -43.3515625 1.328125 C-44.1146875 1.31910156 -44.8778125 1.31007813 -45.6640625 1.30078125 C-46.499375 1.28337891 -46.499375 1.28337891 -47.3515625 1.265625 C-47.3515625 0.935625 -47.3515625 0.605625 -47.3515625 0.265625 C-46.50851563 0.13285156 -45.66546875 0.00007813 -44.796875 -0.13671875 C-43.70117188 -0.31332031 -42.60546875 -0.48992187 -41.4765625 -0.671875 C-39.84074219 -0.93291016 -39.84074219 -0.93291016 -38.171875 -1.19921875 C-25.40720241 -3.62132421 -12.74802155 -3.85089671 0 0 Z " fill="#FDF6DA" transform="translate(273.3515625,124.734375)"/>
<path d="M0 0 C0.33 0.99 0.66 1.98 1 3 C1.66 3 2.32 3 3 3 C3.91957029 6.68664088 4.79440083 10.2757475 3.15234375 13.83984375 C-0.77363325 18.70439252 -6.07267868 22.24571184 -11.09765625 25.88671875 C-12.98053454 27.25769742 -14.82019846 28.69088789 -16.6015625 30.19140625 C-19.99460752 32.75000534 -22.87274023 33.16055733 -27 34 C-27 33.34 -27 32.68 -27 32 C-25.71086513 31.32845067 -24.41859796 30.66291141 -23.125 30 C-22.40570313 29.62875 -21.68640625 29.2575 -20.9453125 28.875 C-19 28 -19 28 -17 28 C-17.33 27.01 -17.66 26.02 -18 25 C-16.02 24.67 -14.04 24.34 -12 24 C-11.67 22.68 -11.34 21.36 -11 20 C-10.34 20 -9.68 20 -9 20 C-9 19.34 -9 18.68 -9 18 C-8.05125 17.814375 -7.1025 17.62875 -6.125 17.4375 C-2.72133209 16.29487155 -2.72133209 16.29487155 -1.6875 12.9375 C-0.93579117 8.63225851 -0.37509556 4.35308268 0 0 Z " fill="#FB696A" transform="translate(395,200)"/>
<path d="M0 0 C0.969375 0.144375 1.93875 0.28875 2.9375 0.4375 C5.00978961 0.74188057 7.06502091 1.00554625 9.15234375 1.18359375 C14.78106047 1.66831628 19.71683877 3.01413088 25 5 C25 4.01 25 3.02 25 2 C25.66 2 26.32 2 27 2 C27.350625 3.258125 27.70125 4.51625 28.0625 5.8125 C30.71111238 13.79617446 35.7170917 20.54440216 41 27 C40.01 27.495 40.01 27.495 39 28 C37.55943648 26.10642909 36.1225099 24.21027278 34.6875 22.3125 C34.08131836 21.51682617 34.08131836 21.51682617 33.46289062 20.70507812 C27 12.14043445 27 12.14043445 27 9 C25.39125 9.0928125 25.39125 9.0928125 23.75 9.1875 C19.63178497 8.98158925 19.0759237 8.40306539 16 6 C12.2357815 5.26059994 8.83926926 5 5 5 C4.34 4.34 3.68 3.68 3 3 C2.01 3.495 2.01 3.495 1 4 C0.67 2.68 0.34 1.36 0 0 Z " fill="#E48376" transform="translate(150,209)"/>
<path d="M0 0 C4.09185251 2.30631687 6.85800042 5.01628268 9.4375 8.9375 C9.4375 9.5975 9.4375 10.2575 9.4375 10.9375 C8.4475 10.6075 7.4575 10.2775 6.4375 9.9375 C6.4375 8.9475 6.4375 7.9575 6.4375 6.9375 C4.1275 6.6075 1.8175 6.2775 -0.5625 5.9375 C-0.5625 4.9475 -0.5625 3.9575 -0.5625 2.9375 C-1.738125 3.2159375 -1.738125 3.2159375 -2.9375 3.5 C-5.5625 3.9375 -5.5625 3.9375 -7.5625 2.9375 C-7.8925 3.5975 -8.2225 4.2575 -8.5625 4.9375 C-9.5525 4.6075 -10.5425 4.2775 -11.5625 3.9375 C-14.66060865 4.71202716 -16.24840035 5.60246037 -18.4375 7.9375 C-19.87738418 11.77719114 -19.45315481 14.62512509 -18.88671875 18.6328125 C-18.5625 20.9375 -18.5625 20.9375 -18.5625 23.9375 C-21.51859147 20.98140853 -21.77505478 18.21114316 -21.9375 14.1875 C-21.88377208 9.58704687 -21.00120006 6.86238434 -18.046875 3.34375 C-12.61130939 -1.80573321 -6.92445039 -2.06518696 0 0 Z " fill="#E1A37B" transform="translate(288.5625,171.0625)"/>
<path d="M0 0 C2.75837688 4.78896449 2.5334201 9.59248907 2.75 15 C2.80542969 15.99773437 2.86085938 16.99546875 2.91796875 18.0234375 C2.96050781 18.98507813 3.00304687 19.94671875 3.046875 20.9375 C3.08651367 21.81277344 3.12615234 22.68804687 3.16699219 23.58984375 C2.98478239 26.21963192 2.28305105 27.72665817 1 30 C0.58979839 31.9910424 0.58979839 31.9910424 0.4375 34 C0.15105311 36.75705133 -0.30375791 39.31449478 -1 42 C-1 42.99 -1 43.98 -1 45 C-1.62390625 45.23460937 -2.2478125 45.46921875 -2.890625 45.7109375 C-5.60255941 47.36823075 -5.88975997 48.6141599 -6.75 51.625 C-6.99234375 52.44226563 -7.2346875 53.25953125 -7.484375 54.1015625 C-7.65453125 54.72804687 -7.8246875 55.35453125 -8 56 C-8.66 56 -9.32 56 -10 56 C-10.33 56.99 -10.66 57.98 -11 59 C-12 57 -12 57 -11.42675781 55.09570312 C-11.10545898 54.33193359 -10.78416016 53.56816406 -10.453125 52.78125 C-10.1025 51.93046875 -9.751875 51.0796875 -9.390625 50.203125 C-9.01421875 49.31109375 -8.6378125 48.4190625 -8.25 47.5 C-2.89869468 34.73331445 0.19275774 23.48003811 0.0625 9.5625 C0.05798828 8.64017578 0.05347656 7.71785156 0.04882812 6.76757812 C0.03713938 4.51164952 0.02075455 2.25586033 0 0 Z " fill="#E68770" transform="translate(327,179)"/>
<path d="M0 0 C15.86335723 -0.40388493 31.50395677 -0.52133789 47.25 1.6875 C48.35891602 1.83606445 49.46783203 1.98462891 50.61035156 2.13769531 C58.28520497 3.32793813 64.96849191 5.72951278 72 9 C70.0625 9.5625 70.0625 9.5625 68 10 C67.505 9.505 67.505 9.505 67 9 C64.52010985 8.62523502 62.05204807 8.29424021 59.5625 8 C52.26552984 7.13276492 52.26552984 7.13276492 50 6 C50 5.34 50 4.68 50 4 C48.87980469 4.01933594 47.75960937 4.03867187 46.60546875 4.05859375 C41.79868976 4.05753894 37.08748695 3.57473491 32.3125 3.0625 C21.55480878 1.96574356 10.80287626 1.41591621 0 1 C0 0.67 0 0.34 0 0 Z " fill="#52587C" transform="translate(132,263)"/>
<path d="M0 0 C-0.99 0.495 -0.99 0.495 -2 1 C-2.05447047 2.41623216 -2.09300508 3.83308191 -2.125 5.25 C-2.15980469 6.43335938 -2.15980469 6.43335938 -2.1953125 7.640625 C-1.9828378 10.20731941 -1.28654105 11.7916067 0 14 C1.0725 13.979375 2.145 13.95875 3.25 13.9375 C6.26200334 13.98770006 8.18060782 14.2522953 11 15 C12.41660662 15.24388038 13.83616943 15.47103092 15.2578125 15.68359375 C16.04800781 15.80669922 16.83820313 15.92980469 17.65234375 16.05664062 C19.30783249 16.31163297 20.96410382 16.56159282 22.62109375 16.80664062 C23.40871094 16.93103516 24.19632813 17.05542969 25.0078125 17.18359375 C26.08506592 17.34686157 26.08506592 17.34686157 27.18408203 17.51342773 C29 18 29 18 31 20 C28.95809019 19.85761163 26.91647955 19.71092972 24.875 19.5625 C23.73804688 19.48128906 22.60109375 19.40007812 21.4296875 19.31640625 C18 19 18 19 15 18.46875 C11.66278897 17.94731078 8.5006743 17.90305434 5.125 17.9375 C3.97257812 17.94652344 2.82015625 17.95554687 1.6328125 17.96484375 C0.76398438 17.97644531 -0.10484375 17.98804688 -1 18 C-2.17133058 15.54379149 -3.33721722 13.08525083 -4.5 10.625 C-4.83386719 9.92632812 -5.16773437 9.22765625 -5.51171875 8.5078125 C-8 3.2265625 -8 3.2265625 -8 1 C-5.29120665 -0.35439668 -2.99066732 -0.06501451 0 0 Z " fill="#46BCCA" transform="translate(120,293)"/>
<path d="M0 0 C4.87305969 4.29975855 7.8200442 9.37224317 11 15 C7.63889381 15 6.11234474 14.26659139 3.11328125 12.8125 C2.17548828 12.36132812 1.23769531 11.91015625 0.27148438 11.4453125 C-0.70498047 10.96835937 -1.68144531 10.49140625 -2.6875 10 C-3.67556641 9.52304687 -4.66363281 9.04609375 -5.68164062 8.5546875 C-8.12365931 7.37496833 -10.56292817 6.18989613 -13 5 C-9.98096289 4.19510911 -7.38148111 3.89144881 -4.25 3.9375 C-3.45078125 3.94652344 -2.6515625 3.95554687 -1.828125 3.96484375 C-1.22484375 3.97644531 -0.6215625 3.98804688 0 4 C0 2.68 0 1.36 0 0 Z " fill="#C24074" transform="translate(241,276)"/>
<path d="M0 0 C5.2193114 0.59893737 8.99125131 2.84972882 12.8125 6.4375 C14.07421875 9.14453125 14.07421875 9.14453125 14.8125 11.4375 C14.1525 11.4375 13.4925 11.4375 12.8125 11.4375 C11.8060725 9.77470673 10.80664593 8.10766516 9.8125 6.4375 C6.76119632 4.40329755 5.40974873 3.68276696 1.8125 3.4375 C-1.732683 4.70681729 -1.732683 4.70681729 -5.1875 6.4375 C-6.115625 6.746875 -7.04375 7.05625 -8 7.375 C-10.62894934 8.65191825 -11.19870199 9.74077815 -12.1875 12.4375 C-12.8475 12.4375 -13.5075 12.4375 -14.1875 12.4375 C-14.5175 14.7475 -14.8475 17.0575 -15.1875 19.4375 C-15.5175 19.4375 -15.8475 19.4375 -16.1875 19.4375 C-16.50321333 14.17561115 -16.08664347 10.88285331 -13.1875 6.4375 C-9.04141379 2.12882217 -5.75390321 0.78975142 0 0 Z " fill="#EDA36E" transform="translate(219.1875,169.5625)"/>
<path d="M0 0 C0.33 0 0.66 0 1 0 C4.31857146 24.4744645 2.19779914 46.17920169 -4 70 C-4.96470453 66.5309615 -4.94772909 63.84547153 -4.5625 60.25 C-4.46066406 59.26515625 -4.35882813 58.2803125 -4.25390625 57.265625 C-4.17011719 56.51796875 -4.08632813 55.7703125 -4 55 C-2.515 54.505 -2.515 54.505 -1 54 C0.08244827 42.36032511 0.11787211 30.80329213 0.0625 19.125 C0.05747112 17.26171996 0.05291069 15.3984386 0.04882812 13.53515625 C0.03794131 9.02340405 0.02075454 4.51171715 0 0 Z " fill="#BB788D" transform="translate(399,212)"/>
<path d="M0 0 C0.33 0 0.66 0 1 0 C1.28951652 5.59731932 1.18452849 9.1683016 -2 14 C-6.95451657 18.58292783 -10.92345051 19.35235849 -17.48046875 19.28515625 C-21.38305338 18.84346838 -23.15696608 17.69340055 -26 15 C-26 13.68 -26 12.36 -26 11 C-24.02 11.495 -24.02 11.495 -22 12 C-22 11.34 -22 10.68 -22 10 C-20.68 10.33 -19.36 10.66 -18 11 C-18.33 12.98 -18.66 14.96 -19 17 C-18.113125 16.649375 -17.22625 16.29875 -16.3125 15.9375 C-12.85652144 14.95939286 -11.39923018 15.26503131 -8 16 C-2.69850273 12.46566849 -1.57160167 5.92372939 0 0 Z " fill="#DC6C75" transform="translate(297,182)"/>
<path d="M0 0 C0 0.33 0 0.66 0 1 C-0.89307861 1.02505615 -1.78615723 1.0501123 -2.70629883 1.07592773 C-6.02185454 1.17110186 -9.33723729 1.27033283 -12.65258789 1.37231445 C-14.08711003 1.41560793 -15.52168184 1.45728699 -16.95629883 1.49731445 C-19.0191952 1.55515267 -21.08184283 1.61880753 -23.14453125 1.68359375 C-25.00621948 1.73858032 -25.00621948 1.73858032 -26.90551758 1.79467773 C-30.03553347 1.87144121 -30.03553347 1.87144121 -33 3 C-34.77166975 3.14835948 -36.54767612 3.24770018 -38.32421875 3.31640625 C-39.35224609 3.35830078 -40.38027344 3.40019531 -41.43945312 3.44335938 C-42.51130859 3.48267578 -43.58316406 3.52199219 -44.6875 3.5625 C-46.31268555 3.62727539 -46.31268555 3.62727539 -47.97070312 3.69335938 C-50.64700791 3.79946838 -53.32340526 3.90152361 -56 4 C-56 3.67 -56 3.34 -56 3 C-37.13621804 -0.55974003 -19.11217464 -2.36975552 0 0 Z " fill="#DBE4A9" transform="translate(270,90)"/>
<path d="M0 0 C0.268125 0.598125 0.53625 1.19625 0.8125 1.8125 C1.98493467 3.97224808 3.19369282 5.35790256 5 7 C6.98 6.34 8.96 5.68 11 5 C11.33 7.31 11.66 9.62 12 12 C15.35817665 11.89055736 15.35817665 11.89055736 19 11 C21.24850483 8.52338502 21.24850483 8.52338502 23 6 C23.99 6 24.98 6 26 6 C25.74310052 9.16842693 25.41729253 10.60962957 23.0625 12.8125 C18.0962486 14.73818932 12.98913043 15.03534127 7.90234375 13.2734375 C4.02761221 11.24969236 1.668598 9.02426576 0 5 C-0.1875 2.1875 -0.1875 2.1875 0 0 Z " fill="#EC646B" transform="translate(204,187)"/>
<path d="M0 0 C7.62970347 -0.55827099 14.73033646 0.31442147 22.1875 1.8125 C23.01797852 1.97782227 23.84845703 2.14314453 24.70410156 2.31347656 C30.28584587 3.48823131 35.62919786 5.08375981 41 7 C41 7.33 41 7.66 41 8 C34.62008935 8.25019257 34.62008935 8.25019257 31.75390625 7.09375 C28.28821495 5.71730523 24.77653084 5.04387855 21.125 4.375 C20.44308594 4.2409375 19.76117188 4.106875 19.05859375 3.96875 C14.63227408 3.14250366 10.50167227 2.87070915 6 3 C6.66 3.66 7.32 4.32 8 5 C7.67 5.99 7.34 6.98 7 8 C6.01 8.33 5.02 8.66 4 9 C0 2.25 0 2.25 0 0 Z " fill="#1A536C" transform="translate(120,310)"/>
<path d="M0 0 C0.33 0 0.66 0 1 0 C1.167247 4.823616 1.32784308 9.64738911 1.48217773 14.47143555 C1.53566959 16.11374934 1.59100431 17.75600416 1.64819336 19.39819336 C1.72990479 21.75361406 1.80506639 24.10916482 1.87890625 26.46484375 C1.90594131 27.20339096 1.93297638 27.94193817 1.96083069 28.7028656 C2.0129438 30.46785616 2.0118612 32.2342801 2 34 C1.505 34.495 1.505 34.495 1 35 C0.9684421 37.55619004 1.06826631 40.09780341 1.16015625 42.65234375 C1 45 1 45 -1 47 C-1.39764263 48.98821313 -1.73775349 50.98944339 -2 53 C-0.7934375 53.185625 -0.7934375 53.185625 0.4375 53.375 C1.283125 53.58125 2.12875 53.7875 3 54 C3.33 54.66 3.66 55.32 4 56 C0.7 55.67 -2.6 55.34 -6 55 C-5.65066406 53.87851562 -5.30132812 52.75703125 -4.94140625 51.6015625 C-0.07937714 34.56406175 -0.07851754 17.58023074 0 0 Z " fill="#CA5E80" transform="translate(313,244)"/>
<path d="M0 0 C0.87832993 -0.0033284 1.75665985 -0.0066568 2.66160583 -0.01008606 C4.50446047 -0.01511293 6.34732407 -0.01749571 8.19018555 -0.01733398 C10.99217758 -0.01952818 13.79378008 -0.03775015 16.59570312 -0.05664062 C18.39713409 -0.05957401 20.1985669 -0.06155917 22 -0.0625 C22.82730118 -0.06968552 23.65460236 -0.07687103 24.50697327 -0.08427429 C29.8035784 -0.06367805 34.34122597 0.69628941 39.43359375 2.16796875 C39.43359375 2.49796875 39.43359375 2.82796875 39.43359375 3.16796875 C33.02591785 3.29360945 33.02591785 3.29360945 30.12817383 2.67895508 C24.23983623 1.56232097 18.10347683 1.87902806 12.12109375 1.85546875 C11.40038696 1.851521 10.67968018 1.84757324 9.93713379 1.84350586 C0.31196664 1.81878322 -8.57885888 2.31548709 -17.80078125 5.29296875 C-20.56640625 6.16796875 -20.56640625 6.16796875 -24.56640625 6.16796875 C-24.56640625 5.50796875 -24.56640625 4.84796875 -24.56640625 4.16796875 C-22.58640625 3.83796875 -20.60640625 3.50796875 -18.56640625 3.16796875 C-18.56640625 2.50796875 -18.56640625 1.84796875 -18.56640625 1.16796875 C-12.34186317 0.38712605 -6.27001057 0.00845463 0 0 Z " fill="#945A7D" transform="translate(136.56640625,261.83203125)"/>
<path d="M0 0 C0.33 0 0.66 0 1 0 C2.23839599 6.65637843 2.09139136 13.2471936 2 20 C1.34 20 0.68 20 0 20 C0.020625 18.7625 0.04125 17.525 0.0625 16.25 C0.06766681 13.3359175 -0.06984442 10.79046673 -1 8 C-4.17032634 9.41217209 -6.40874862 11.13649376 -8.9375 13.5 C-13.04293779 17.17128203 -16.65243647 18.81165255 -22 20 C-17.73146585 15.45607655 -12.95630346 11.76679063 -8 8 C-4.75223667 5.52887573 -2.36698976 3.31378566 0 0 Z " fill="#DD426A" transform="translate(398,212)"/>
<path d="M0 0 C0.99 0 1.98 0 3 0 C3 1.32 3 2.64 3 4 C3.66 4 4.32 4 5 4 C5.33 3.01 5.66 2.02 6 1 C7.905247 6.10334017 9.42589023 10.46342706 9 16 C4.32894208 14.44298069 0.91294315 11.91552627 -3 9 C-2.01 8.67 -1.02 8.34 0 8 C0 5.36 0 2.72 0 0 Z " fill="#334A63" transform="translate(249,296)"/>
<path d="M0 0 C0 0.33 0 0.66 0 1 C-12.33493259 2.08269001 -12.33493259 2.08269001 -18.4375 1.8125 C-23.16167577 1.72772686 -25.42013335 2.98537546 -29 6 C-29.33 5.34 -29.66 4.68 -30 4 C-30.73605469 4.20496094 -31.47210938 4.40992188 -32.23046875 4.62109375 C-33.69419922 5.02521484 -33.69419922 5.02521484 -35.1875 5.4375 C-36.63189453 5.83775391 -36.63189453 5.83775391 -38.10546875 6.24609375 C-40.72663697 6.92880018 -43.338935 7.49892195 -46 8 C-45.690625 8.8971875 -45.690625 8.8971875 -45.375 9.8125 C-45 12 -45 12 -47 15 C-47.66 11.7 -48.32 8.4 -49 5 C-48.17113281 4.87753906 -47.34226562 4.75507813 -46.48828125 4.62890625 C-43.37903989 4.06833754 -40.38894158 3.30317011 -37.33935547 2.48925781 C-24.95474334 -0.68628376 -12.70588764 -0.40140107 0 0 Z " fill="#487295" transform="translate(153,264)"/>
<path d="M0 0 C0.66 0.33 1.32 0.66 2 1 C2.12375 1.969375 2.2475 2.93875 2.375 3.9375 C2.64669737 7.08999034 2.64669737 7.08999034 4.9375 8.3125 C5.9584375 8.6528125 5.9584375 8.6528125 7 9 C7.66 9.33 8.32 9.66 9 10 C9.33333333 11.66666667 9.66666667 13.33333333 10 15 C10.95394836 17.02237052 11.94535351 19.0282696 13 21 C10 21 10 21 7.9140625 19.09375 C3.38147925 13.95785362 -0.58751199 8.94433395 -4 3 C-2.68 2.67 -1.36 2.34 0 2 C0 1.34 0 0.68 0 0 Z " fill="#2D536F" transform="translate(132,320)"/>
<path d="M0 0 C1.12377697 3.30435084 0.89554742 5.0506862 -0.4375 8.25 C-0.72496094 8.95640625 -1.01242188 9.6628125 -1.30859375 10.390625 C-1.53675781 10.92171875 -1.76492187 11.4528125 -2 12 C-1.34 12.33 -0.68 12.66 0 13 C-0.62519531 13.22945312 -1.25039062 13.45890625 -1.89453125 13.6953125 C-4.67664814 15.41929588 -4.88531771 16.7497349 -5.6875 19.875 C-5.91824219 20.73867187 -6.14898437 21.60234375 -6.38671875 22.4921875 C-6.69029297 23.73355469 -6.69029297 23.73355469 -7 25 C-7.19207031 25.68320313 -7.38414063 26.36640625 -7.58203125 27.0703125 C-8.1411269 29.32248544 -8.1411269 29.32248544 -8 33 C-8.66 33 -9.32 33 -10 33 C-10.33 36.63 -10.66 40.26 -11 44 C-11.66 44 -12.32 44 -13 44 C-12.29157085 29.12298777 -6.84788275 13.16419469 0 0 Z " fill="#D18E8B" transform="translate(115,173)"/>
<path d="M0 0 C0.66 0.33 1.32 0.66 2 1 C1.50628906 1.48210937 1.01257813 1.96421875 0.50390625 2.4609375 C-0.45708984 3.40839844 -0.45708984 3.40839844 -1.4375 4.375 C-2.07558594 5.00148438 -2.71367187 5.62796875 -3.37109375 6.2734375 C-5.07882176 7.91723061 -5.07882176 7.91723061 -6 10 C-6.66 10 -7.32 10 -8 10 C-8.226875 10.556875 -8.45375 11.11375 -8.6875 11.6875 C-10.3664331 14.64562023 -12.58983583 16.58983583 -15 19 C-16.78801057 21.34526051 -18.53564865 23.71254454 -20.25390625 26.109375 C-22.17313634 28.18746754 -23.23927282 28.63754129 -26 29 C-24.47920927 25.49172085 -22.4004327 23.04728354 -19.8125 20.25 C-16.96113296 17.14811349 -14.15862827 14.02894886 -11.4375 10.8125 C-7.9624745 6.8072476 -4.07221092 3.38469479 0 0 Z " fill="#E2B977" transform="translate(156,121)"/>
<path d="M0 0 C3 1 6 2 9 3 C11.7813654 3.09719057 14.53185227 3.13917492 17.3125 3.125 C18.43301758 3.13080078 18.43301758 3.13080078 19.57617188 3.13671875 C22.94210426 3.13080842 26.02545133 2.99567416 29.35546875 2.4296875 C32.49758131 1.91915222 34.19177087 2.59588543 37 4 C37 3.01 37 2.02 37 1 C37.66 1.33 38.32 1.66 39 2 C39.495 3.485 39.495 3.485 40 5 C34.62538009 5.2167614 29.25054318 5.41367781 23.87451172 5.59204102 C22.04488584 5.65556292 20.21544147 5.72455369 18.38623047 5.79907227 C15.76037364 5.9051028 13.13449697 5.99159892 10.5078125 6.07421875 C9.68693146 6.11157639 8.86605042 6.14893402 8.02029419 6.18742371 C5.71533203 6.2487793 5.71533203 6.2487793 2 6 C0 3 0 3 0 0 Z " fill="#38A3B9" transform="translate(110,288)"/>
<path d="M0 0 C10.23 0.33 20.46 0.66 31 1 C29 3 29 3 26.38623047 3.22705078 C25.30744629 3.21657715 24.22866211 3.20610352 23.1171875 3.1953125 C21.95058594 3.18886719 20.78398437 3.18242187 19.58203125 3.17578125 C18.35871094 3.15902344 17.13539063 3.14226562 15.875 3.125 C14.64394531 3.11597656 13.41289062 3.10695313 12.14453125 3.09765625 C9.09616185 3.07402548 6.04817618 3.04108054 3 3 C2.40267181 5.76264289 2 8.16032769 2 11 C2 11.99 2 12.98 2 14 C3.65 14 5.3 14 7 14 C7 14.33 7 14.66 7 15 C4.69 15 2.38 15 0 15 C0 10.05 0 5.1 0 0 Z " fill="#F86C73" transform="translate(314,254)"/>
<path d="M0 0 C12.73021814 -0.55082675 26.86350995 1.01428898 39 5 C39.495 5.99 39.495 5.99 40 7 C38.02043559 6.85966889 36.04134859 6.7125877 34.0625 6.5625 C32.40927734 6.44068359 32.40927734 6.44068359 30.72265625 6.31640625 C28 6 28 6 27 5 C25.00041636 4.95919217 22.99954746 4.95745644 21 5 C21 4.34 21 3.68 21 3 C18.89590361 2.97298592 16.79170822 2.95359777 14.6875 2.9375 C13.51574219 2.92589844 12.34398438 2.91429687 11.13671875 2.90234375 C7.96940805 2.85100102 7.96940805 2.85100102 5 4 C5 3.34 5 2.68 5 2 C4.34 2 3.68 2 3 2 C2.67 2.99 2.34 3.98 2 5 C1.34 4.67 0.68 4.34 0 4 C0 2.68 0 1.36 0 0 Z " fill="#F57B61" transform="translate(107,202)"/>
<path d="M0 0 C0.90492188 0.20496094 1.80984375 0.40992188 2.7421875 0.62109375 C18.96473892 3.93645739 35.50725955 3.74296659 52 4 C46.61607143 9.59821429 46.61607143 9.59821429 43 10 C42.505 8.02 42.505 8.02 42 6 C41.21987549 5.98541748 40.43975098 5.97083496 39.63598633 5.95581055 C36.02771302 5.88035489 32.42026888 5.78402284 28.8125 5.6875 C27.58595703 5.66494141 26.35941406 5.64238281 25.09570312 5.61914062 C16.87485197 5.38054072 8.83350663 4.67753444 1 2 C0.67 1.34 0.34 0.68 0 0 Z " fill="#224762" transform="translate(262,366)"/>
<path d="M0 0 C1.65 0 3.3 0 5 0 C5 0.66 5 1.32 5 2 C5.8470752 2.01981934 6.69415039 2.03963867 7.56689453 2.06005859 C10.73169002 2.13849595 13.8961242 2.22520049 17.06054688 2.31738281 C18.42601921 2.35549202 19.79158577 2.39037536 21.15722656 2.421875 C23.12847607 2.46791878 25.09941204 2.52681049 27.0703125 2.5859375 C28.25383301 2.6173584 29.43735352 2.6487793 30.65673828 2.68115234 C34.04359516 3.00415768 36.82865088 3.79649201 40 5 C40 5.33 40 5.66 40 6 C36.9375 5.85416667 33.875 5.70833333 30.8125 5.5625 C29.88026611 5.51810791 28.94803223 5.47371582 27.98754883 5.42797852 C19.27685547 5.01318359 10.56616211 4.59838867 1.85546875 4.18359375 C0.58316406 4.12300781 -0.68914062 4.06242188 -2 4 C-1.34 2.68 -0.68 1.36 0 0 Z " fill="#FB855E" transform="translate(117,174)"/>
<path d="M0 0 C-4.40775631 2.70978158 -9.51937795 3.02306837 -14.53710938 3.76757812 C-18.15385308 4.34843936 -21.35696216 5.03644079 -24.703125 6.5546875 C-27.81553081 7.91913081 -30.08169397 8.45765027 -33.4375 8.6875 C-34.73494141 8.78611328 -34.73494141 8.78611328 -36.05859375 8.88671875 C-36.69925781 8.92410156 -37.33992187 8.96148437 -38 9 C-34.73298509 6.82199006 -31.70365921 5.72992274 -28 4.4375 C-26.7625 4.00308594 -25.525 3.56867188 -24.25 3.12109375 C-19.8729819 1.61123294 -16.24648987 0.77062799 -11.625 0.4375 C-9.94277344 0.31181641 -9.94277344 0.31181641 -8.2265625 0.18359375 C-5.47351403 0.02694329 -2.75620842 -0.03613007 0 0 Z " fill="#E0DD9D" transform="translate(228,93)"/>
<path d="M0 0 C0.99 0.33 1.98 0.66 3 1 C-4.02149435 6.98892165 -12.6702971 11 -22 11 C-22 11.66 -22 12.32 -22 13 C-25.96 13 -29.92 13 -34 13 C-30.11645647 11.05822824 -26.4958257 10.08036998 -22.3125 9.125 C-15.02435707 7.38212957 -8.5034653 5.20870639 -2.125 1.1875 C-1.073125 0.5996875 -1.073125 0.5996875 0 0 Z " fill="#F55673" transform="translate(382,242)"/>
<path d="M0 0 C0.7031987 0.02361099 1.4063974 0.04722198 2.13090515 0.07154846 C4.36223947 0.14771555 6.59318475 0.23193932 8.82421875 0.31640625 C10.34308034 0.36967407 11.86196055 0.4224141 13.38085938 0.47460938 C17.09138084 0.60326615 20.80159699 0.73914682 24.51171875 0.87890625 C24.51171875 1.20890625 24.51171875 1.53890625 24.51171875 1.87890625 C17.2182022 3.01567629 10.00857261 3.06248505 2.63671875 3.06640625 C1.40179688 3.07865234 0.166875 3.09089844 -1.10546875 3.10351562 C-2.86890625 3.10641602 -2.86890625 3.10641602 -4.66796875 3.109375 C-5.73772949 3.11348389 -6.80749023 3.11759277 -7.90966797 3.12182617 C-10.48828125 2.87890625 -10.48828125 2.87890625 -12.48828125 0.87890625 C-8.24225981 -0.18170634 -4.36318435 -0.15644884 0 0 Z " fill="#D63366" transform="translate(327.48828125,252.12109375)"/>
<path d="M0 0 C0 4.05345102 -1.58160112 5.8215329 -4 9 C-4.99 9.33 -5.98 9.66 -7 10 C-7.66 10.66 -8.32 11.32 -9 12 C-10.953125 12.5625 -10.953125 12.5625 -13.25 13 C-16.08590648 13.5690021 -18.57333884 14.20553656 -21.3125 15.1875 C-24.19075776 16.05767095 -25.21381365 15.83763812 -28 15 C-27.09378906 14.70867187 -26.18757813 14.41734375 -25.25390625 14.1171875 C-15.51787353 10.84093522 -7.88786692 6.61563032 0 0 Z " fill="#583A5A" transform="translate(390,284)"/>
<path d="M0 0 C4.16218403 -0.34140078 5.98686245 0.28931771 9.1875 2.9375 C9.95320313 3.5665625 10.71890625 4.195625 11.5078125 4.84375 C15.7314521 8.49805887 19.89118217 12.21714267 24 16 C23.01 16.33 22.02 16.66 21 17 C20.34 16.01 19.68 15.02 19 14 C16.94074861 13.27617533 16.94074861 13.27617533 15 13 C15 12.34 15 11.68 15 11 C14.01 10.67 13.02 10.34 12 10 C12 9.34 12 8.68 12 8 C11.4225 7.71125 10.845 7.4225 10.25 7.125 C8.16666667 6.08333333 6.08333333 5.04166667 4 4 C4 3.34 4 2.68 4 2 C2.68 1.67 1.36 1.34 0 1 C0 0.67 0 0.34 0 0 Z " fill="#E5CA84" transform="translate(332,115)"/>
<path d="M0 0 C0.66 0.33 1.32 0.66 2 1 C2 1.99 2 2.98 2 4 C12.23 4 22.46 4 33 4 C33 4.33 33 4.66 33 5 C26.96287684 5.89438862 21.02965173 6.11001623 14.9375 6.125 C13.80465576 6.13176758 13.80465576 6.13176758 12.64892578 6.13867188 C7.68376618 6.1257221 2.91559581 5.70302505 -2 5 C-1.34 3.35 -0.68 1.7 0 0 Z " fill="#F25E6F" transform="translate(317,235)"/>
<path d="M0 0 C8.11371788 -0.30489963 15.12243151 0.32863427 22.625 3.5625 C26.13714372 5.05841307 29.21783482 5.61406478 33 6 C33 6.66 33 7.32 33 8 C27.07356065 7.51422628 21.70492033 6.4758494 15.99609375 4.83203125 C10.71041418 3.36416978 5.35180826 2.19968993 0 1 C0 0.67 0 0.34 0 0 Z " fill="#FE986A" transform="translate(133,204)"/>
<path d="M0 0 C1.83030476 6.10537373 -1.54956764 11.43083554 -4 17 C-4.99 17 -5.98 17 -7 17 C-7.33 17.66 -7.66 18.32 -8 19 C-8.52121824 13.64122498 -6.89970226 10.4549608 -4 6.125 C-3.6184375 5.53203125 -3.236875 4.9390625 -2.84375 4.328125 C-1.90790125 2.87755944 -0.95558369 1.43764153 0 0 Z " fill="#E6976A" transform="translate(124,157)"/>
<path d="M0 0 C6.84043704 1.48209469 13.05649836 3.91906755 19.5 6.625 C20.51320312 7.04523438 21.52640625 7.46546875 22.5703125 7.8984375 C25.04899423 8.92732426 27.52543156 9.96126861 30 11 C30 11.33 30 11.66 30 12 C24.93767116 12.48990279 20.67369154 10.7106322 16 9 C16 8.34 16 7.68 16 7 C15.13375 7.309375 15.13375 7.309375 14.25 7.625 C11.44563145 8.09239476 10.34613181 7.53712084 8 6 C7.67 5.34 7.34 4.68 7 4 C4.69034152 2.94647157 2.3570226 1.94280904 0 1 C0 0.67 0 0.34 0 0 Z " fill="#503D5F" transform="translate(200,270)"/>
<path d="M0 0 C2.87010183 1.98173697 4.6935988 3.9153982 6.625 6.8125 C6.625 7.4725 6.625 8.1325 6.625 8.8125 C5.635 8.4825 4.645 8.1525 3.625 7.8125 C3.625 6.8225 3.625 5.8325 3.625 4.8125 C1.315 4.4825 -0.995 4.1525 -3.375 3.8125 C-3.375 2.8225 -3.375 1.8325 -3.375 0.8125 C-4.15875 0.998125 -4.9425 1.18375 -5.75 1.375 C-8.375 1.8125 -8.375 1.8125 -10.375 0.8125 C-10.705 1.4725 -11.035 2.1325 -11.375 2.8125 C-12.365 2.4825 -13.355 2.1525 -14.375 1.8125 C-16.51755793 2.20182856 -16.51755793 2.20182856 -18.375 2.8125 C-18.375 2.1525 -18.375 1.4925 -18.375 0.8125 C-12.60976496 -2.26229202 -6.04533379 -2.12706189 0 0 Z " fill="#F9A25E" transform="translate(291.375,173.1875)"/>
<path d="M0 0 C0.99 0.66 1.98 1.32 3 2 C1.625 4 1.625 4 0 6 C-0.66 6 -1.32 6 -2 6 C-2.165 6.7425 -2.33 7.485 -2.5 8.25 C-4.62130127 12.13905232 -7.8307071 13.66235186 -12 15 C-12.66 14.67 -13.32 14.34 -14 14 C-12.38113585 12.32737283 -10.7547271 10.66204463 -9.125 9 C-8.22007812 8.071875 -7.31515625 7.14375 -6.3828125 6.1875 C-4 4 -4 4 -2 4 C-1.34 2.68 -0.68 1.36 0 0 Z " fill="#4A7D94" transform="translate(283,340)"/>
<path d="M0 0 C3 3.75 3 3.75 3 6 C7.455 5.505 7.455 5.505 12 5 C7.27097529 8.15268314 2.79349678 10.52668153 -3 10 C-4 7 -4 7 -3.22265625 5.17578125 C-2.1484375 3.45052083 -1.07421875 1.72526042 0 0 Z " fill="#295B71" transform="translate(171,396)"/>
<path d="M0 0 C2.72869407 0.03287583 5.2966618 0.56397771 8 1 C1.53998681 5.30667546 -6.33493413 4.18613057 -13.8293457 4.18530273 C-16.05894865 4.18749651 -18.28806207 4.2057006 -20.51757812 4.22460938 C-21.94010248 4.22754246 -23.36262918 4.22952782 -24.78515625 4.23046875 C-26.07301025 4.23457764 -27.36086426 4.23868652 -28.68774414 4.24291992 C-31.76020785 4.01758629 -33.43767735 3.63027526 -36 2 C-34.47076904 2.01571045 -34.47076904 2.01571045 -32.91064453 2.03173828 C-29.13496398 2.06788727 -25.35929879 2.09088177 -21.58349609 2.10986328 C-19.94805328 2.11993254 -18.31262851 2.13358881 -16.67724609 2.15087891 C-14.3290563 2.17508705 -11.98110412 2.18647357 -9.6328125 2.1953125 C-8.53273361 2.21079636 -8.53273361 2.21079636 -7.41043091 2.22659302 C-5.60537303 2.22699368 -3.8009217 2.12212755 -2 2 C-1.34 1.34 -0.68 0.68 0 0 Z " fill="#C64477" transform="translate(354,298)"/>
<path d="M0 0 C7.38478374 0.57919872 13.95635046 2.72548817 21 5 C21.495 12.92 21.495 12.92 22 21 C20.02 20.34 18.04 19.68 16 19 C17.32 18.67 18.64 18.34 20 18 C19.67 14.04 19.34 10.08 19 6 C17.71222656 5.73445312 16.42445313 5.46890625 15.09765625 5.1953125 C13.4191762 4.83898713 11.74079583 4.48219202 10.0625 4.125 C9.21236328 3.95097656 8.36222656 3.77695313 7.48632812 3.59765625 C6.67744141 3.42363281 5.86855469 3.24960938 5.03515625 3.0703125 C4.2862915 2.91320801 3.53742676 2.75610352 2.76586914 2.59423828 C1 2 1 2 0 0 Z " fill="#F56761" transform="translate(152,180)"/>
<path d="M0 0 C8.91627826 -0.33646333 17.08846274 0.68461604 25 5 C27.3159992 5.77042422 29.6356325 6.38526445 32 7 C32 7.33 32 7.66 32 8 C25.89979826 7.38225805 20.21649208 6.13093704 14.3125 4.5 C7.20653484 2.53778836 7.20653484 2.53778836 0 1 C0 0.67 0 0.34 0 0 Z " fill="#E5645C" transform="translate(136,190)"/>
<path d="M0 0 C4.75481646 0.57634139 7.97048212 2.55068521 12 5 C12 5.66 12 6.32 12 7 C13.32 7 14.64 7 16 7 C17.8125 9.3125 17.8125 9.3125 19 12 C18.67 12.99 18.34 13.98 18 15 C16.93072266 13.98679688 16.93072266 13.98679688 15.83984375 12.953125 C10.84670525 8.30271875 6.18008047 4.02137267 0 1 C0 0.67 0 0.34 0 0 Z " fill="#EEC280" transform="translate(292,133)"/>
<path d="M0 0 C10.75219129 1.4748581 20.45910936 7.07730642 30 12 C30 12.66 30 13.32 30 14 C25.89379337 12.72210973 22.18464223 11.17628017 18.375 9.1875 C12.37466097 6.12717671 6.24988416 3.50438621 0 1 C0 0.67 0 0.34 0 0 Z " fill="#184F67" transform="translate(161,318)"/>
<path d="M0 0 C-0.99 0.495 -0.99 0.495 -2 1 C-2.2993987 8.22032206 -2.2993987 8.22032206 0 15 C-0.99 15.495 -0.99 15.495 -2 16 C-3.00460531 13.87717331 -4.00355602 11.75166979 -5 9.625 C-5.556875 8.44164062 -6.11375 7.25828125 -6.6875 6.0390625 C-8 3 -8 3 -8 1 C-5.29120665 -0.35439668 -2.99066732 -0.06501451 0 0 Z " fill="#45C5D8" transform="translate(120,293)"/>
<path d="M0 0 C2.31 1.32 4.62 2.64 7 4 C7 4.33 7 4.66 7 5 C-13.295 4.505 -13.295 4.505 -34 4 C-34 3.67 -34 3.34 -34 3 C-22.78 2.67 -11.56 2.34 0 2 C0 1.34 0 0.68 0 0 Z " fill="#DA4E76" transform="translate(166,258)"/>
<path d="M0 0 C0.66 0.28875 1.32 0.5775 2 0.875 C4.42384069 1.78394026 6.6145644 2.3863158 9.125 2.9375 C12.36474227 3.7051255 13.7386791 4.53310447 16 7 C19.10007201 8.20049407 19.10007201 8.20049407 22 9 C22 9.66 22 10.32 22 11 C16.66576495 10.4607694 12.79800443 8.6039 8.1875 6.0625 C7.50751953 5.70220703 6.82753906 5.34191406 6.12695312 4.97070312 C1.13375235 2.2675047 1.13375235 2.2675047 0 0 Z " fill="#3B9CB2" transform="translate(218,345)"/>
<path d="M0 0 C0.66 0.66 1.32 1.32 2 2 C1.51781006 3.48802124 1.51781006 3.48802124 1.02587891 5.00610352 C-0.09809264 8.95461864 -0.34518294 12.8134979 -0.4140625 16.90234375 C-0.43342865 17.6249086 -0.4527948 18.34747345 -0.4727478 19.0919342 C-0.53197605 21.37367375 -0.57869855 23.65546533 -0.625 25.9375 C-0.66323223 27.4954633 -0.70228692 29.05340666 -0.7421875 30.61132812 C-0.83762975 34.40738781 -0.92186668 38.20354622 -1 42 C-1.33 42 -1.66 42 -2 42 C-2 30.12 -2 18.24 -2 6 C-1.34 6 -0.68 6 0 6 C0 4.02 0 2.04 0 0 Z " fill="#E06D76" transform="translate(104,211)"/>
<path d="M0 0 C0.33 0.99 0.66 1.98 1 3 C1.66 3 2.32 3 3 3 C3.33 5.97 3.66 8.94 4 12 C2.02 12.99 0.04 13.98 -2 15 C-1.03644647 4.44191344 -1.03644647 4.44191344 0 0 Z " fill="#E98666" transform="translate(395,200)"/>
<path d="M0 0 C2.87575868 0.11454804 5.75012112 0.2412847 8.625 0.375 C9.83736328 0.42140625 9.83736328 0.42140625 11.07421875 0.46875 C15.71838314 0.6952946 19.62693856 1.2592668 24 3 C24 3.33 24 3.66 24 4 C7.29157175 3.03644647 7.29157175 3.03644647 -1 2 C-0.67 1.34 -0.34 0.68 0 0 Z " fill="#ED695E" transform="translate(112,186)"/>
<path d="M0 0 C-0.33 0.66 -0.66 1.32 -1 2 C-5.29794004 3.21774968 -9.60919494 4.17672405 -14 5 C-13.79375 5.598125 -13.5875 6.19625 -13.375 6.8125 C-13 9 -13 9 -15 12 C-15.66 8.7 -16.32 5.4 -17 2 C-15.700625 1.7834375 -15.700625 1.7834375 -14.375 1.5625 C-12.22628495 1.20438083 -10.0800138 0.83102294 -7.9375 0.4375 C-5.23515852 0.03502361 -2.72587083 -0.08017267 0 0 Z " fill="#4B8EA8" transform="translate(121,267)"/>
<path d="M0 0 C8.22268358 0.64491636 17.97892313 2.47935381 25 7 C25.75 10.125 25.75 10.125 26 13 C24.5 11.625 24.5 11.625 23 10 C23 9.34 23 8.68 23 8 C22.34515625 7.82984375 21.6903125 7.6596875 21.015625 7.484375 C13.90943391 5.5974203 6.95210608 3.39016561 0 1 C0 0.67 0 0.34 0 0 Z " fill="#F89B71" transform="translate(149,194)"/>
<path d="M0 0 C2.22939514 2.09317955 2.98925655 3.91636823 3.91796875 6.80078125 C3.25796875 6.80078125 2.59796875 6.80078125 1.91796875 6.80078125 C0.91154125 5.13798798 -0.08788532 3.47094641 -1.08203125 1.80078125 C-6.2312845 -1.63205425 -11.0820439 -1.29599274 -17.08203125 -1.19921875 C-18.07203125 -1.19921875 -19.06203125 -1.19921875 -20.08203125 -1.19921875 C-14.03499746 -7.24625254 -6.18371676 -4.1189301 0 0 Z " fill="#E6B07E" transform="translate(230.08203125,174.19921875)"/>
<path d="M0 0 C0.99 0.66 1.98 1.32 3 2 C5.05709596 2.24055468 5.05709596 2.24055468 7.1875 2.125 C8.445625 2.08375 9.70375 2.0425 11 2 C11 2.66 11 3.32 11 4 C12.32 4.66 13.64 5.32 15 6 C10.97985339 7.56454159 7.30074319 6.46223974 3.25 5.5625 C2.55261719 5.41490234 1.85523438 5.26730469 1.13671875 5.11523438 C-0.5772021 4.75131967 -2.28884581 4.37670932 -4 4 C-2.68 3.67 -1.36 3.34 0 3 C0 2.01 0 1.02 0 0 Z " fill="#388CA8" transform="translate(154,290)"/>
<path d="M0 0 C0.33 0 0.66 0 1 0 C1 3.3 1 6.6 1 10 C-3.19469571 9.40075776 -7.00999834 8.42500059 -11 7 C-10.67 6.34 -10.34 5.68 -10 5 C-7.69 5.33 -5.38 5.66 -3 6 C-3 5.34 -3 4.68 -3 4 C-2.34 4 -1.68 4 -1 4 C-0.67 2.68 -0.34 1.36 0 0 Z " fill="#EC5071" transform="translate(171,188)"/>
<path d="M0 0 C-5.11539053 5.49430835 -9.81821105 7.41757193 -17 9 C-7.79854369 -0.74271845 -7.79854369 -0.74271845 0 0 Z " fill="#E2CE88" transform="translate(175,112)"/>
<path d="M0 0 C2.02408755 0.09002398 4.04544287 0.24641038 6.0625 0.4375 C7.16722656 0.53933594 8.27195312 0.64117187 9.41015625 0.74609375 C10.26480469 0.82988281 11.11945313 0.91367187 12 1 C12 1.33 12 1.66 12 2 C6.67132017 3.10941367 1.53718145 3.11548069 -3.875 3.0625 C-4.75414062 3.05798828 -5.63328125 3.05347656 -6.5390625 3.04882812 C-8.69273803 3.03712337 -10.84637817 3.01919069 -13 3 C-13.33 2.34 -13.66 1.68 -14 1 C-13.07316406 1.01160156 -12.14632813 1.02320313 -11.19140625 1.03515625 C-9.39509766 1.04869141 -9.39509766 1.04869141 -7.5625 1.0625 C-5.77005859 1.07990234 -5.77005859 1.07990234 -3.94140625 1.09765625 C-1.11126659 1.33901792 -1.11126659 1.33901792 0 0 Z " fill="#FB5E70" transform="translate(336,267)"/>
<path d="M0 0 C-0.99 0 -1.98 0 -3 0 C-3 0.66 -3 1.32 -3 2 C-4.91512272 2.50588147 -6.83216922 3.00448391 -8.75 3.5 C-10.35101563 3.91765625 -10.35101563 3.91765625 -11.984375 4.34375 C-15 5 -15 5 -19 5 C-19 4.34 -19 3.68 -19 3 C-17.02 2.67 -15.04 2.34 -13 2 C-13 1.34 -13 0.68 -13 0 C-11.58456585 -0.19658808 -10.16755969 -0.38187546 -8.75 -0.5625 C-7.96109375 -0.66691406 -7.1721875 -0.77132813 -6.359375 -0.87890625 C-3.99467126 -1.00027349 -2.2488963 -0.69633257 0 0 Z " fill="#AF5E85" transform="translate(131,263)"/>
<path d="M0 0 C0.33 0.99 0.66 1.98 1 3 C1.66 3 2.32 3 3 3 C3 3.66 3 4.32 3 5 C2.34 5 1.68 5 1 5 C1 5.66 1 6.32 1 7 C-0.75 8.2890625 -0.75 8.2890625 -3 9.625 C-3.7425 10.07101562 -4.485 10.51703125 -5.25 10.9765625 C-5.8275 11.31429688 -6.405 11.65203125 -7 12 C-5.63855967 6.80177328 -3.53269829 3.90456127 0 0 Z " fill="#D9486F" transform="translate(391,277)"/>
<path d="M0 0 C3.55780196 0.60990891 6.6828589 1.5783681 10 3 C10.33 2.34 10.66 1.68 11 1 C11.99 1 12.98 1 14 1 C14 2.65 14 4.3 14 6 C14.66 6.33 15.32 6.66 16 7 C13 8 13 8 9.86328125 6.56640625 C8.6739872 5.90864027 7.49053629 5.24022185 6.3125 4.5625 C5.70599609 4.22412109 5.09949219 3.88574219 4.47460938 3.53710938 C2.9779975 2.70042085 1.48830811 1.85137169 0 1 C0 0.67 0 0.34 0 0 Z " fill="#2A4764" transform="translate(169,362)"/>
<path d="M0 0 C0 6.6 0 13.2 0 20 C-0.33 20 -0.66 20 -1 20 C-1.33 14.72 -1.66 9.44 -2 4 C-3.98 5.32 -5.96 6.64 -8 8 C-8 6.68 -8 5.36 -8 4 C-2.88888889 0 -2.88888889 0 0 0 Z " fill="#EB586E" transform="translate(400,232)"/>
<path d="M0 0 C0.33 0 0.66 0 1 0 C0.67 4.62 0.34 9.24 0 14 C1.65 14.33 3.3 14.66 5 15 C5.33 15.66 5.66 16.32 6 17 C2.7 16.67 -0.6 16.34 -4 16 C-2.68 10.72 -1.36 5.44 0 0 Z " fill="#AE5678" transform="translate(311,283)"/>
<path d="M0 0 C1.875 0.25 1.875 0.25 4 1 C5.25 3.0625 5.25 3.0625 6 5 C6.33 5 6.66 5 7 5 C8.34382872 11.23047859 8.34382872 11.23047859 6.6875 14.9375 C5.8521875 15.9584375 5.8521875 15.9584375 5 17 C4.34 17 3.68 17 3 17 C3.03480469 16.19175781 3.06960938 15.38351563 3.10546875 14.55078125 C3.13253906 13.48214844 3.15960938 12.41351563 3.1875 11.3125 C3.22230469 10.25675781 3.25710938 9.20101562 3.29296875 8.11328125 C2.96666615 4.64577232 1.99030125 2.81567552 0 0 Z " fill="#FBF3E1" transform="translate(294,175)"/>
<path d="M0 0 C1.010625 0.01546875 2.02125 0.0309375 3.0625 0.046875 C5.7935824 0.23572644 8.33416785 0.64234708 11 1.25 C11.33 2.9 11.66 4.55 12 6.25 C10.88625 5.5384375 10.88625 5.5384375 9.75 4.8125 C4.19608871 1.65686858 -1.17822786 1.51842945 -7.375 3.125 C-10.1296778 3.9710704 -10.1296778 3.9710704 -11 6.25 C-11 5.26 -11 4.27 -11 3.25 C-7.34783113 0.37660243 -4.57590481 -0.11673227 0 0 Z " fill="#FDF2DA" transform="translate(282,168.75)"/>
<path d="M0 0 C0 0.99 0 1.98 0 3 C0.928125 2.938125 1.85625 2.87625 2.8125 2.8125 C6 3 6 3 7.875 4.5 C8.24625 4.995 8.6175 5.49 9 6 C5.97644292 7.51177854 4.14442366 6.29310208 1 5.25 C-0.0725 4.90453125 -1.145 4.5590625 -2.25 4.203125 C-5 3 -5 3 -7 0 C-3.86650268 -1.04449911 -3.01031744 -0.93423645 0 0 Z " fill="#40BCCE" transform="translate(160,313)"/>
<path d="M0 0 C0.66 0 1.32 0 2 0 C1.36843005 5.05255964 -0.13459373 9.29593201 -2 14 C-2.66 13.67 -3.32 13.34 -4 13 C-4.45374191 7.32822615 -3.65083143 4.4024732 0 0 Z " fill="#3A576D" transform="translate(392,282)"/>
<path d="M0 0 C0.99 0.33 1.98 0.66 3 1 C2.505 1.845625 2.01 2.69125 1.5 3.5625 C-0.80082963 8.83523458 -0.33386925 13.49778935 1 19 C0.34 19 -0.32 19 -1 19 C-2.78409802 15.93753253 -3.22880021 13.77920727 -3.125 10.25 C-3.10695312 9.45078125 -3.08890625 8.6515625 -3.0703125 7.828125 C-3.04710937 7.22484375 -3.02390625 6.6215625 -3 6 C-2.34 6 -1.68 6 -1 6 C-0.67 4.02 -0.34 2.04 0 0 Z " fill="#FDF7E5" transform="translate(204,175)"/>
<path d="M0 0 C0.66 0.33 1.32 0.66 2 1 C2.33333333 2.66666667 2.66666667 4.33333333 3 6 C3.95394836 8.02237052 4.94535351 10.0282696 6 12 C3 12 3 12 0.875 10.4375 C-1.51379206 7.33207032 -1.70360455 4.85314086 -2 1 C-1.34 0.67 -0.68 0.34 0 0 Z " fill="#284560" transform="translate(139,329)"/>
<path d="M0 0 C1.65 0 3.3 0 5 0 C6.25664978 2.90600261 7 4.79604584 7 8 C6.01 8.33 5.02 8.66 4 9 C0 2.25 0 2.25 0 0 Z " fill="#2A5E78" transform="translate(120,310)"/>
<path d="M0 0 C0.66 0 1.32 0 2 0 C1.5623733 6.65494402 0.93786695 13.06213305 -4 18 C-4.99 17.34 -5.98 16.68 -7 16 C-6.38125 15.4225 -5.7625 14.845 -5.125 14.25 C-0.93307533 9.81149153 -0.5920079 5.92007904 0 0 Z " fill="#FDF2E6" transform="translate(235,182)"/>
<path d="M0 0 C1.32 0.33 2.64 0.66 4 1 C3.67 2.98 3.34 4.96 3 7 C0.69 6.34 -1.62 5.68 -4 5 C-4 3.68 -4 2.36 -4 1 C-2.02 1.495 -2.02 1.495 0 2 C0 1.34 0 0.68 0 0 Z " fill="#EC686C" transform="translate(275,192)"/>
<path d="M0 0 C2.75679425 0.91893142 4.92298281 2.00850794 7.4375 3.4375 C10.25899998 5.0368274 13.08700015 6.57335998 16 8 C16 8.66 16 9.32 16 10 C11.98696492 8.443154 8.0907072 6.68861143 4.1875 4.875 C2.44533203 4.06675781 2.44533203 4.06675781 0.66796875 3.2421875 C-0.21246094 2.83226562 -1.09289062 2.42234375 -2 2 C-1.34 1.34 -0.68 0.68 0 0 Z " fill="#30839F" transform="translate(198,306)"/>
<path d="M0 0 C3.02565053 1.70677722 3.49108987 3.10558318 4.4375 6.375 C2.25 6.75 2.25 6.75 -0.5625 6.375 C-2.55272836 4.53538352 -3.95239899 2.58313852 -5.5625 0.375 C-2.5625 -0.625 -2.5625 -0.625 0 0 Z " fill="#D93973" transform="translate(243.5625,281.625)"/>
<path d="M0 0 C5.41798672 0.69165788 10.6822785 1.75799248 16 3 C16 4.32 16 5.64 16 7 C10.53262809 5.25192871 5.24175152 3.34205919 0 1 C0 0.67 0 0.34 0 0 Z " fill="#BF417A" transform="translate(206,271)"/>
<path d="M0 0 C5.65020618 0.60108576 10.66164461 2.07528683 16 4 C16 4.66 16 5.32 16 6 C14.9275 5.835 13.855 5.67 12.75 5.5 C8.96971248 4.91189085 8.96971248 4.91189085 5 5 C4.34 4.34 3.68 3.68 3 3 C2.01 3.495 2.01 3.495 1 4 C0.67 2.68 0.34 1.36 0 0 Z " fill="#F47162" transform="translate(150,209)"/>
<path d="M0 0 C2.3125 0.3125 2.3125 0.3125 5 1 C8.41633299 1.83325195 10.63652064 2.12115979 14 1 C14 2.65 14 4.3 14 6 C8.72 4.68 3.44 3.36 -2 2 C-1.34 1.34 -0.68 0.68 0 0 Z " fill="#FB8566" transform="translate(159,179)"/>
<path d="M0 0 C-6.44985438 3.52888584 -13.74446344 4.31545811 -21 4 C-21 3.34 -21 2.68 -21 2 C-17.77475599 0.92491866 -15.01239848 0.68167174 -11.625 0.4375 C-9.94277344 0.31181641 -9.94277344 0.31181641 -8.2265625 0.18359375 C-5.47351403 0.02694329 -2.75620842 -0.03613007 0 0 Z " fill="#EADE92" transform="translate(228,93)"/>
<path d="M0 0 C-1.27007214 0.9593419 -2.54108919 1.91743294 -3.8125 2.875 C-4.87404297 3.67550781 -4.87404297 3.67550781 -5.95703125 4.4921875 C-7.60456297 5.70814781 -9.29624211 6.86416141 -11 8 C-11.33 6.35 -11.66 4.7 -12 3 C-10.68 3 -9.36 3 -8 3 C-7.67 2.01 -7.34 1.02 -7 0 C-4.05610218 -1.17755913 -3.10046087 -1.03348696 0 0 Z " fill="#F1B572" transform="translate(206,136)"/>
<path d="M0 0 C1.39600295 4.18800884 0.46700544 6.94811016 -0.96484375 11.00390625 C-2 13 -2 13 -4.6875 14.5625 C-5.450625 14.706875 -6.21375 14.85125 -7 15 C-5.63408831 11.45756548 -4.09068516 8.07372071 -2.375 4.6875 C-1.70597656 3.36298828 -1.70597656 3.36298828 -1.0234375 2.01171875 C-0.68570313 1.34785156 -0.34796875 0.68398438 0 0 Z " fill="#DCEEF3" transform="translate(251,354)"/>
<path d="M0 0 C3.30616284 3.80208727 7 9.83581485 7 15 C6.01 15 5.02 15 4 15 C4 14.01 4 13.02 4 12 C3.34 12 2.68 12 2 12 C0.86235649 7.73383684 0 4.43513689 0 0 Z " fill="#D6AD83" transform="translate(383,166)"/>
<path d="M0 0 C2.9654455 1.05941813 5.28494718 2.36072282 8 4 C7.34 4.66 6.68 5.32 6 6 C4.989375 5.34 3.97875 4.68 2.9375 4 C-2.3150455 0.99702954 -7.26128407 1.60879614 -13 3 C-13 2.34 -13 1.68 -13 1 C-9.04880384 -0.97559808 -4.30452019 -0.44489672 0 0 Z " fill="#FDF1D7" transform="translate(224,169)"/>
<path d="M0 0 C-2.55604391 2.98205122 -5.35053322 4.58490064 -9 6 C-11.375 5.1875 -11.375 5.1875 -13 4 C-12.01 3.67 -11.02 3.34 -10 3 C-10.66 2.34 -11.32 1.68 -12 1 C-7.95858806 0.36605303 -4.0934693 -0.12404452 0 0 Z " fill="#28556A" transform="translate(321,368)"/>
<path d="M0 0 C3.96 1.98 3.96 1.98 8 4 C7 8 7 8 5 10 C4.34 9.34 3.68 8.68 3 8 C3.33 7.34 3.66 6.68 4 6 C3.34 5.67 2.68 5.34 2 5 C1.27840576 3.35636866 0.60648579 1.68949614 0 0 Z " fill="#2C4E63" transform="translate(239,357)"/>
<path d="M0 0 C-1.74552064 1.15264553 -3.49660196 2.29687327 -5.25 3.4375 C-6.22453125 4.07558594 -7.1990625 4.71367187 -8.203125 5.37109375 C-10.58381615 6.7576136 -12.31780307 7.546581 -15 8 C-14.34 6.68 -13.68 5.36 -13 4 C-11.68 4 -10.36 4 -9 4 C-9 3.34 -9 2.68 -9 2 C-3.375 -1.125 -3.375 -1.125 0 0 Z " fill="#2B6B84" transform="translate(338,359)"/>
<path d="M0 0 C1.72863281 0.57041016 1.72863281 0.57041016 3.4921875 1.15234375 C4.36101562 1.45269531 5.22984375 1.75304687 6.125 2.0625 C6.125 2.3925 6.125 2.7225 6.125 3.0625 C-0.4258985 2.60490047 -6.5503842 1.8524856 -12.875 0.0625 C-12.875 -0.2675 -12.875 -0.5975 -12.875 -0.9375 C-7.93719968 -2.13067667 -4.78546117 -1.6114308 0 0 Z " fill="#C24B7B" transform="translate(184.875,263.9375)"/>
<path d="M0 0 C-1 3 -1 3 -3.125 4.6875 C-6.60081696 6.274286 -9.22092373 6.2222986 -13 6 C-11.59719304 3.19438607 -9.9490995 2.99319493 -7.0625 1.875 C-6.16660156 1.52179688 -5.27070313 1.16859375 -4.34765625 0.8046875 C-2 0 -2 0 0 0 Z " fill="#FCF2D9" transform="translate(226,126)"/>
<path d="M0 0 C3.77528304 1.25842768 4.10667045 2.62493429 6 6 C6.66 6.66 7.32 7.32 8 8 C7.34 8.66 6.68 9.32 6 10 C3.36 7.69 0.72 5.38 -2 3 C-1.34 2.01 -0.68 1.02 0 0 Z " fill="#29536D" transform="translate(153,346)"/>
<path d="M0 0 C0.99 0.33 1.98 0.66 3 1 C1.92598892 3.91517292 1.22189824 5.77810176 -1 8 C-1.99 8 -2.98 8 -4 8 C-4.33 8.99 -4.66 9.98 -5 11 C-5.66 10.67 -6.32 10.34 -7 10 C-3.535 5.05 -3.535 5.05 0 0 Z " fill="#455E72" transform="translate(299,318)"/>
<path d="M0 0 C7.92 0.33 15.84 0.66 24 1 C20.25549268 2.87225366 19.14972809 3.24550933 15.234375 3.1953125 C14.34492188 3.18886719 13.45546875 3.18242187 12.5390625 3.17578125 C11.61867188 3.15902344 10.69828125 3.14226562 9.75 3.125 C8.81414062 3.11597656 7.87828125 3.10695313 6.9140625 3.09765625 C4.60911343 3.07413636 2.3046884 3.04126853 0 3 C0 2.01 0 1.02 0 0 Z " fill="#DE3B6B" transform="translate(315,269)"/>
<path d="M0 0 C0.66 0.33 1.32 0.66 2 1 C1.50628906 1.48210937 1.01257813 1.96421875 0.50390625 2.4609375 C-0.45708984 3.40839844 -0.45708984 3.40839844 -1.4375 4.375 C-2.07558594 5.00148438 -2.71367187 5.62796875 -3.37109375 6.2734375 C-5.07882176 7.91723061 -5.07882176 7.91723061 -6 10 C-6.66 10 -7.32 10 -8 10 C-8 10.66 -8 11.32 -8 12 C-9.32 12.33 -10.64 12.66 -12 13 C-10.44997253 9.11602311 -7.99523379 6.97020381 -4.875 4.25 C-3.96492187 3.45078125 -3.05484375 2.6515625 -2.1171875 1.828125 C-1.06917969 0.92320313 -1.06917969 0.92320313 0 0 Z " fill="#D7CC95" transform="translate(156,121)"/>
<path d="M0 0 C0.99386719 0.10183594 1.98773438 0.20367187 3.01171875 0.30859375 C3.77097656 0.39238281 4.53023438 0.47617187 5.3125 0.5625 C4.3225 1.0575 4.3225 1.0575 3.3125 1.5625 C3.3125 2.2225 3.3125 2.8825 3.3125 3.5625 C-0.6475 3.2325 -4.6075 2.9025 -8.6875 2.5625 C-8.6875 1.9025 -8.6875 1.2425 -8.6875 0.5625 C-5.3763987 -0.54120043 -3.44001051 -0.36423641 0 0 Z " fill="#E23272" transform="translate(325.6875,297.4375)"/>
<path d="M0 0 C0.2475 0.5775 0.495 1.155 0.75 1.75 C2.97636479 5.75745663 5.80471463 8.20202055 10 10 C10 10.99 10 11.98 10 13 C6.06991222 11.68997074 3.52221456 10.33292638 1 7 C0.25 3.25 0.25 3.25 0 0 Z " fill="#E07572" transform="translate(204,187)"/>
<path d="M0 0 C7.34918342 -0.43230491 13.90215087 1.18225815 21 3 C14.04800974 5.08246555 6.80725567 2.85652427 0 1 C0 0.67 0 0.34 0 0 Z " fill="#FEA572" transform="translate(128,190)"/>
<path d="M0 0 C1.12377697 3.30435084 0.89554742 5.0506862 -0.4375 8.25 C-0.72496094 8.95640625 -1.01242188 9.6628125 -1.30859375 10.390625 C-1.53675781 10.92171875 -1.76492187 11.4528125 -2 12 C-1.34 12.33 -0.68 12.66 0 13 C-1.65 13.66 -3.3 14.32 -5 15 C-4.5188509 9.22621075 -2.81532819 5.04140164 0 0 Z " fill="#D08988" transform="translate(115,173)"/>
<path d="M0 0 C6.93 0 13.86 0 21 0 C21 0.33 21 0.66 21 1 C19.96359375 1.06058594 18.9271875 1.12117187 17.859375 1.18359375 C16.48957127 1.26803371 15.11978025 1.35267997 13.75 1.4375 C12.72712891 1.49647461 12.72712891 1.49647461 11.68359375 1.55664062 C8.93547735 1.73006545 6.31525631 1.92014203 3.640625 2.59765625 C2 3 2 3 0 2 C0 1.34 0 0.68 0 0 Z " fill="#F76961" transform="translate(115,178)"/>
<path d="M0 0 C5.1103144 1.1454153 9.37234081 2.45478745 14 5 C14 5.99 14 6.98 14 8 C11.97954558 7.39816251 9.97888961 6.72693904 8 6 C7.67 5.34 7.34 4.68 7 4 C4.69034152 2.94647157 2.3570226 1.94280904 0 1 C0 0.67 0 0.34 0 0 Z " fill="#544367" transform="translate(200,270)"/>
<path d="M0 0 C1.60717771 2.41076656 2.61542515 4.28099245 3.625 6.9375 C3.88539063 7.60652344 4.14578125 8.27554688 4.4140625 8.96484375 C5 11 5 11 5 15 C4.34 15 3.68 15 3 15 C1.08697693 11.73386305 0.64325339 9.00554752 0.375 5.25 C0.30023438 4.26515625 0.22546875 3.2803125 0.1484375 2.265625 C0.09945313 1.51796875 0.05046875 0.7703125 0 0 Z " fill="#D0A081" transform="translate(390,181)"/>
<path d="M0 0 C1.46366342 0.39753821 2.9208935 0.81881384 4.375 1.25 C5.18710938 1.48203125 5.99921875 1.7140625 6.8359375 1.953125 C9.48835823 3.2362455 9.86804091 4.35523577 11 7 C11.66 7.33 12.32 7.66 13 8 C12.01 8.33 11.02 8.66 10 9 C9.67 8.01 9.34 7.02 9 6 C8.01 6 7.02 6 6 6 C5.67 5.34 5.34 4.68 5 4 C3.35636866 3.27840576 1.68949614 2.60648579 0 2 C0 1.34 0 0.68 0 0 Z " fill="#338EAA" transform="translate(226,324)"/>
<path d="M0 0 C0.33 0 0.66 0 1 0 C1.19622241 4.21878192 0.80230168 7.17010894 -1 11 C-1.66 11 -2.32 11 -3 11 C-3.33 11.99 -3.66 12.98 -4 14 C-4.33 13.34 -4.66 12.68 -5 12 C-4.26821134 9.92803369 -3.44100997 7.8891448 -2.5625 5.875 C-2.08941406 4.77929688 -1.61632812 3.68359375 -1.12890625 2.5546875 C-0.75636719 1.71164063 -0.38382812 0.86859375 0 0 Z " fill="#DF847A" transform="translate(320,224)"/>
<path d="M0 0 C1.65 0 3.3 0 5 0 C4.6875 2.375 4.6875 2.375 4 5 C3.01 5.66 2.02 6.32 1 7 C0.01 6.67 -0.98 6.34 -2 6 C-1.34 4.02 -0.68 2.04 0 0 Z " fill="#F65F66" transform="translate(288,192)"/>
<path d="M0 0 C0.33 0 0.66 0 1 0 C1.25 6.625 1.25 6.625 -1 10 C-1.39387788 12.32387947 -1.73486085 14.65793749 -2 17 C-2.66 17 -3.32 17 -4 17 C-3.45018084 10.95198929 -2.09570426 5.69398894 0 0 Z " fill="#FDEDD7" transform="translate(178,168)"/>
<path d="M0 0 C8.6309795 5.96583144 8.6309795 5.96583144 11 11 C8.525 10.01 8.525 10.01 6 9 C6 8.34 6 7.68 6 7 C5.01 6.67 4.02 6.34 3 6 C0 2.55555556 0 2.55555556 0 0 Z " fill="#FCF4DA" transform="translate(302,141)"/>
<path d="M0 0 C4.2026393 2.63886654 7.56638098 5.36440339 11 9 C5.25 7.25 5.25 7.25 3 5 C1.68252676 4.30251417 0.35085807 3.63040043 -1 3 C-0.67 2.01 -0.34 1.02 0 0 Z " fill="#D1567D" transform="translate(193,238)"/>
<path d="M0 0 C0.97533063 2.63339271 1.019574 3.92348347 0.3125 6.6875 C-1 9 -1 9 -3.125 9.8125 C-3.74375 9.874375 -4.3625 9.93625 -5 10 C-3.84414715 6.08788267 -2.64465038 3.1254959 0 0 Z " fill="#DDA976" transform="translate(124,157)"/>
<path d="M0 0 C2.97 0 5.94 0 9 0 C9 0.66 9 1.32 9 2 C5.7 2.66 2.4 3.32 -1 4 C-0.67 2.68 -0.34 1.36 0 0 Z " fill="#F3C988" transform="translate(231,121)"/>
<path d="M0 0 C4.49797113 1.68673918 8.72886302 3.81673892 13 6 C12.34 6.66 11.68 7.32 11 8 C6.545 6.02 6.545 6.02 2 4 C2 3.34 2 2.68 2 2 C1.34 2 0.68 2 0 2 C0 1.34 0 0.68 0 0 Z " fill="#1B5168" transform="translate(198,335)"/>
<path d="M0 0 C4.19813062 3.74427866 6.07776117 6.8403063 8 12 C5.97954558 11.39816251 3.97888961 10.72693904 2 10 C1.67 9.34 1.34 8.68 1 8 C1.99 8 2.98 8 4 8 C3.01 6.576875 3.01 6.576875 2 5.125 C0 2 0 2 0 0 Z " fill="#B04F78" transform="translate(244,280)"/>
<path d="M0 0 C-1.725227 0.67679658 -3.45538939 1.34102 -5.1875 2 C-6.15042969 2.37125 -7.11335938 2.7425 -8.10546875 3.125 C-10.92182358 3.97636772 -13.08164439 4.17072647 -16 4 C-15 2 -15 2 -12.63671875 1.11328125 C-11.66347656 0.84902344 -10.69023437 0.58476562 -9.6875 0.3125 C-8.72199219 0.04050781 -7.75648438 -0.23148438 -6.76171875 -0.51171875 C-4.04794289 -0.99152353 -2.56334995 -0.90721887 0 0 Z " fill="#F85F6E" transform="translate(368,235)"/>
<path d="M0 0 C0 0.33 0 0.66 0 1 C-6.93 0.67 -13.86 0.34 -21 0 C-21 -0.33 -21 -0.66 -21 -1 C-6.21867882 -2.51708428 -6.21867882 -2.51708428 0 0 Z " fill="#FE7E65" transform="translate(157,179)"/>
<path d="M0 0 C1.14926266 0.95421808 2.29430541 1.91352045 3.4375 2.875 C4.07558594 3.40867187 4.71367187 3.94234375 5.37109375 4.4921875 C7 6 7 6 8 8 C0.42857143 6.14285714 0.42857143 6.14285714 -2 3 C-1.34 3 -0.68 3 0 3 C0 2.01 0 1.02 0 0 Z " fill="#C63F75" transform="translate(229,263)"/>
<path d="M0 0 C-1.10699901 3.21029714 -2.01603825 4.00968977 -5 5.8125 C-5.99 6.204375 -6.98 6.59625 -8 7 C-8.66 6.67 -9.32 6.34 -10 6 C-8.71283353 4.99421411 -7.42011342 3.99553202 -6.125 3 C-5.40570313 2.443125 -4.68640625 1.88625 -3.9453125 1.3125 C-2 0 -2 0 0 0 Z " fill="#FCF5DC" transform="translate(208,135)"/>
<path d="M0 0 C0.66 0.99 1.32 1.98 2 3 C-0.70016634 4.35008317 -2.56977836 3.94892419 -5.5625 3.6875 C-6.55378906 3.60886719 -7.54507812 3.53023438 -8.56640625 3.44921875 C-9.77103516 3.22685547 -9.77103516 3.22685547 -11 3 C-11.33 2.34 -11.66 1.68 -12 1 C-6.06 0.505 -6.06 0.505 0 0 Z " fill="#F2DF8B" transform="translate(270,90)"/>
<path d="M0 0 C2.75220373 0.86911697 4.5656698 1.4472161 6.375 3.75 C7.20607725 6.74187809 6.68048336 9.00587323 6 12 C5.88785156 11.42765625 5.77570313 10.8553125 5.66015625 10.265625 C4.92776966 7.75210888 3.86145147 5.94069457 2.4375 3.75 C1.98246094 3.04359375 1.52742187 2.3371875 1.05859375 1.609375 C0.70925781 1.07828125 0.35992187 0.5471875 0 0 Z " fill="#328DAA" transform="translate(246,336)"/>
<path d="M0 0 C0.33 1.65 0.66 3.3 1 5 C-2.45925163 3.7508258 -5.14693203 2.32472205 -8 0 C-4.71303767 -0.79953138 -3.28976808 -1.09658936 0 0 Z " fill="#3BAABD" transform="translate(215,339)"/>
<path d="M0 0 C3.21852831 0.63065757 5.50801069 1.78020695 8.25 3.5625 C8.95640625 4.01753906 9.6628125 4.47257812 10.390625 4.94140625 C11.18726563 5.46541016 11.18726563 5.46541016 12 6 C8.66411172 7.11196276 7.29427581 7.09809194 4 6 C2.8125 4.0625 2.8125 4.0625 2 2 C1.34 1.34 0.68 0.68 0 0 Z " fill="#36A0BC" transform="translate(206,313)"/>
<path d="M0 0 C1.98 0 3.96 0 6 0 C6 0.99 6 1.98 6 3 C4.125 4.0625 4.125 4.0625 2 5 C1.34 4.67 0.68 4.34 0 4 C0 2.68 0 1.36 0 0 Z " fill="#304765" transform="translate(224,282)"/>
<path d="M0 0 C-1.32 0.33 -2.64 0.66 -4 1 C-4 1.66 -4 2.32 -4 3 C-7.96 3 -11.92 3 -16 3 C-10.42798997 0.21399498 -6.2067169 -0.12170033 0 0 Z " fill="#F96076" transform="translate(364,252)"/>
<path d="M0 0 C0.33 0 0.66 0 1 0 C0.63495936 5.66442374 -0.0554321 10.00703705 -3 15 C-4.28497537 11.14507389 -3.4052209 9.59653164 -2.0625 5.8125 C-1.68222656 4.72582031 -1.30195312 3.63914063 -0.91015625 2.51953125 C-0.60980469 1.68808594 -0.30945313 0.85664063 0 0 Z " fill="#D4C099" transform="translate(109,187)"/>
<path d="M0 0 C0.33 0 0.66 0 1 0 C1.29341888 5.67276511 1.00559652 8.99067246 -2 14 C-2.66 14 -3.32 14 -4 14 C-3.53998088 11.85324409 -3.03717273 10.06969887 -2 8.125 C-0.74669887 5.4617351 -0.39583319 2.90277671 0 0 Z " fill="#E1816F" transform="translate(297,182)"/>
<path d="M0 0 C0.99 0 1.98 0 3 0 C3.33 1.32 3.66 2.64 4 4 C0.77208445 6.1519437 -0.28400809 6.20086443 -4 6 C-2.1875 3 -2.1875 3 0 0 Z " fill="#446279" transform="translate(291,330)"/>
<path d="M0 0 C2.375 -0.1875 2.375 -0.1875 5 0 C7.1519437 3.22791555 7.20086443 4.28400809 7 8 C6.34 8 5.68 8 5 8 C4.67 6.35 4.34 4.7 4 3 C3.01 3 2.02 3 1 3 C0.67 2.01 0.34 1.02 0 0 Z " fill="#3A4257" transform="translate(247,292)"/>
<path d="M0 0 C3.2910841 3.60957611 4.54663921 6.12637153 5 11 C4.01 11.495 4.01 11.495 3 12 C2.49440092 10.56445975 1.9957251 9.1264798 1.5 7.6875 C1.2215625 6.88699219 0.943125 6.08648437 0.65625 5.26171875 C0 3 0 3 0 0 Z " fill="#FDF3E3" transform="translate(176,208)"/>
<path d="M0 0 C0.33 0 0.66 0 1 0 C1.33 5.28 1.66 10.56 2 16 C0.02 15.34 -1.96 14.68 -4 14 C-2.68 13.67 -1.36 13.34 0 13 C0 8.71 0 4.42 0 0 Z " fill="#D66365" transform="translate(172,185)"/>
<path d="M0 0 C0 3.78176921 -1.07555275 5.76967782 -3 9 C-5.1875 10.375 -5.1875 10.375 -7 11 C-5.5140084 6.40693504 -3.14985318 3.56430755 0 0 Z " fill="#FBEED4" transform="translate(190,149)"/>
<path d="M0 0 C0.33 0.66 0.66 1.32 1 2 C1.99 1.67 2.98 1.34 4 1 C4 1.66 4 2.32 4 3 C2.71349294 3.69710731 1.42059335 4.38242876 0.125 5.0625 C-0.95394531 5.63677734 -0.95394531 5.63677734 -2.0546875 6.22265625 C-2.69664062 6.47917969 -3.33859375 6.73570312 -4 7 C-4.66 6.67 -5.32 6.34 -6 6 C-4.02 4.02 -2.04 2.04 0 0 Z " fill="#3E7A92" transform="translate(275,348)"/>
<path d="M0 0 C0.33 0 0.66 0 1 0 C1 1.98 1 3.96 1 6 C0.34 6 -0.32 6 -1 6 C-1 6.66 -1 7.32 -1 8 C-2.32 7.67 -3.64 7.34 -5 7 C-4.67 6.01 -4.34 5.02 -4 4 C-3.01 4 -2.02 4 -1 4 C-0.67 2.68 -0.34 1.36 0 0 Z " fill="#30485D" transform="translate(387,289)"/>
<path d="M0 0 C2.64 0.33 5.28 0.66 8 1 C8 1.66 8 2.32 8 3 C8.66 3.33 9.32 3.66 10 4 C3.49618902 4.36814024 3.49618902 4.36814024 1.0625 2.5625 C0 1 0 1 0 0 Z " fill="#F77462" transform="translate(167,214)"/>
<path d="M0 0 C2.4375 0.375 2.4375 0.375 5 1 C5.33 1.66 5.66 2.32 6 3 C5.01 3.495 5.01 3.495 4 4 C4 4.66 4 5.32 4 6 C2.68 6 1.36 6 0 6 C0.185625 5.38125 0.37125 4.7625 0.5625 4.125 C1.23686176 1.95839822 1.23686176 1.95839822 0 0 Z " fill="#EA4174" transform="translate(192,242)"/>
<path d="M0 0 C0.33 0 0.66 0 1 0 C1 1.65 1 3.3 1 5 C-1.31 5.66 -3.62 6.32 -6 7 C-5.02433888 5.83040013 -4.044375 4.66438823 -3.0625 3.5 C-2.51722656 2.8503125 -1.97195312 2.200625 -1.41015625 1.53125 C-0.71212891 0.77328125 -0.71212891 0.77328125 0 0 Z " fill="#FDF4DD" transform="translate(197,142)"/>
<path d="M0 0 C0.33 0.66 0.66 1.32 1 2 C5.455 1.505 5.455 1.505 10 1 C5.86621405 3.7558573 3.94796454 4.10756445 -1 4 C-0.67 2.68 -0.34 1.36 0 0 Z " fill="#255066" transform="translate(173,400)"/>
<path d="M0 0 C1.62418745 -0.08090971 3.24951745 -0.13914995 4.875 -0.1875 C5.77992188 -0.22230469 6.68484375 -0.25710938 7.6171875 -0.29296875 C8.79667969 -0.14794922 8.79667969 -0.14794922 10 0 C10.66 0.99 11.32 1.98 12 3 C3.96428571 2.19642857 3.96428571 2.19642857 0 0 Z " fill="#2D92AA" transform="translate(157,294)"/>
<path d="M0 0 C-2.97 1.65 -5.94 3.3 -9 5 C-9.66 4.34 -10.32 3.68 -11 3 C-9.73581754 2.30034557 -8.46334598 1.61565237 -7.1875 0.9375 C-6.47980469 0.55464844 -5.77210938 0.17179688 -5.04296875 -0.22265625 C-3 -1 -3 -1 0 0 Z " fill="#DD3669" transform="translate(382,243)"/>
<path d="M0 0 C0.33 0 0.66 0 1 0 C1.27429625 5.39449293 1.36055646 8.51925805 -2 13 C-3.45047396 10.09905209 -2.45356803 8.44027404 -1.5625 5.375 C-1.27503906 4.37210938 -0.98757812 3.36921875 -0.69140625 2.3359375 C-0.46324219 1.56507813 -0.23507813 0.79421875 0 0 Z " fill="#DF9582" transform="translate(234,182)"/>
<path d="M0 0 C0.99 0.33 1.98 0.66 3 1 C3 2.98 3 4.96 3 7 C1.68 6.67 0.36 6.34 -1 6 C-0.67 4.02 -0.34 2.04 0 0 Z " fill="#F36273" transform="translate(114,179)"/>
<path d="M0 0 C2.66666667 2.66666667 5.33333333 5.33333333 8 8 C7.67 8.66 7.34 9.32 7 10 C3.60582235 6.87378374 1.3937282 4.43458973 0 0 Z " fill="#D4C28A" transform="translate(364,140)"/>
<path d="M0 0 C-3.28463659 2.18975773 -6.20696275 2.99806563 -10 4 C-10.66 3.34 -11.32 2.68 -12 2 C-7.82262526 0.40861915 -4.46839215 -0.21278058 0 0 Z " fill="#27586E" transform="translate(209,391)"/>
<path d="M0 0 C3.8063457 0.67170806 7.35206816 1.72746564 11 3 C10.67 3.99 10.34 4.98 10 6 C6.7 4.35 3.4 2.7 0 1 C0 0.67 0 0.34 0 0 Z " fill="#285B71" transform="translate(169,362)"/>
<path d="M0 0 C-1.65 1.65 -3.3 3.3 -5 5 C-6.65 3.68 -8.3 2.36 -10 1 C-6.61981469 -0.04005702 -3.5219721 -0.08004482 0 0 Z " fill="#447E9E" transform="translate(130,265)"/>
<path d="M0 0 C1.98 0.99 1.98 0.99 4 2 C4 2.66 4 3.32 4 4 C4.66 4 5.32 4 6 4 C5.67 4.66 5.34 5.32 5 6 C2.9375 6.625 2.9375 6.625 1 7 C1 6.01 1 5.02 1 4 C0.6937566 2.66018514 0.36548445 1.32488113 0 0 Z " fill="#DD3373" transform="translate(217,257)"/>
<path d="M0 0 C-2.55068845 2.35448165 -3.71017358 2.98327924 -7.25 3.1875 C-8.1575 3.125625 -9.065 3.06375 -10 3 C-4.37755102 -1.45918367 -4.37755102 -1.45918367 0 0 Z " fill="#DB3A68" transform="translate(376,233)"/>
<path d="M0 0 C0.99 0 1.98 0 3 0 C4.75 2.3125 4.75 2.3125 6 5 C5.67 5.99 5.34 6.98 5 8 C0 2.25 0 2.25 0 0 Z " fill="#EEB473" transform="translate(305,140)"/>
<path d="M0 0 C1.65 0 3.3 0 5 0 C5.66 1.32 6.32 2.64 7 4 C5.35 4 3.7 4 2 4 C1.34 2.68 0.68 1.36 0 0 Z " fill="#F8BC65" transform="translate(290,129)"/>
<path d="M0 0 C0.66 0.66 1.32 1.32 2 2 C-0.64 3.98 -3.28 5.96 -6 8 C-6 5 -6 5 -4.6875 3.61328125 C-3.125 2.40885417 -1.5625 1.20442708 0 0 Z " fill="#2B697E" transform="translate(358,339)"/>
<path d="M0 0 C0.33 0.66 0.66 1.32 1 2 C0.22265625 3.7265625 0.22265625 3.7265625 -0.9375 5.625 C-1.618125 6.73875 -2.29875 7.8525 -3 9 C-3.66 8.01 -4.32 7.02 -5 6 C-3.35 4.02 -1.7 2.04 0 0 Z " fill="#DDE7EC" transform="translate(302,310)"/>
<path d="M0 0 C1.65 0 3.3 0 5 0 C4.67 0.99 4.34 1.98 4 3 C3.01 3 2.02 3 1 3 C0.34 4.32 -0.32 5.64 -1 7 C-0.67 4.69 -0.34 2.38 0 0 Z " fill="#F6B66E" transform="translate(110,189)"/>
<path d="M0 0 C4.8 3.44615385 4.8 3.44615385 5.8125 6.25 C5.874375 6.8275 5.93625 7.405 6 8 C5.01 7.67 4.02 7.34 3 7 C3 6.01 3 5.02 3 4 C1.68 3.34 0.36 2.68 -1 2 C-0.67 1.34 -0.34 0.68 0 0 Z " fill="#E8A87A" transform="translate(292,174)"/>
<path d="M0 0 C1.39195915 4.17587745 -0.17676781 6.13474776 -2 10 C-2.99 10 -3.98 10 -5 10 C-3.66511872 6.40608886 -2.03977277 3.24509304 0 0 Z " fill="#2D5E76" transform="translate(184,375)"/>
<path d="M0 0 C0.99 0.66 1.98 1.32 3 2 C1.6875 4 1.6875 4 0 6 C-0.99 6 -1.98 6 -3 6 C-1.125 1.125 -1.125 1.125 0 0 Z " fill="#456B83" transform="translate(283,340)"/>
<path d="M0 0 C5.53846154 -0.36923077 5.53846154 -0.36923077 7.875 1.5 C8.24625 1.995 8.6175 2.49 9 3 C8.01 3.495 8.01 3.495 7 4 C4.64018187 3.06421005 2.30368736 2.06652192 0 1 C0 0.67 0 0.34 0 0 Z " fill="#43B6C5" transform="translate(160,316)"/>
<path d="M0 0 C0.66 0 1.32 0 2 0 C2 1.65 2 3.3 2 5 C1.01 5.495 1.01 5.495 0 6 C-0.66 6.99 -1.32 7.98 -2 9 C-1.125 1.125 -1.125 1.125 0 0 Z " fill="#33475A" transform="translate(304,307)"/>
<path d="M0 0 C0.33 0 0.66 0 1 0 C1 1.65 1 3.3 1 5 C2.2065625 5.185625 2.2065625 5.185625 3.4375 5.375 C4.7059375 5.684375 4.7059375 5.684375 6 6 C6.33 6.66 6.66 7.32 7 8 C1.125 7.125 1.125 7.125 0 6 C-0.04080783 4.00041636 -0.04254356 1.99954746 0 0 Z " fill="#C53F77" transform="translate(310,292)"/>
<path d="M0 0 C0.66 0 1.32 0 2 0 C2 0.66 2 1.32 2 2 C2.99 2.33 3.98 2.66 5 3 C5 3.66 5 4.32 5 5 C5.66 5 6.32 5 7 5 C6.67 5.66 6.34 6.32 6 7 C3.69 5.35 1.38 3.7 -1 2 C-0.67 1.34 -0.34 0.68 0 0 Z " fill="#FBE0EE" transform="translate(218,253)"/>
<path d="M0 0 C-3.00617269 3.00617269 -5.82381598 2.59585316 -10 3 C-8.0130571 -0.97388579 -3.91761109 -0.08705802 0 0 Z " fill="#DB3668" transform="translate(370,248)"/>
<path d="M0 0 C0.99 0.33 1.98 0.66 3 1 C4.1875 3.5625 4.1875 3.5625 5 6 C4.01 6.33 3.02 6.66 2 7 C1.34 6.67 0.68 6.34 0 6 C0 4.02 0 2.04 0 0 Z " fill="#F7905E" transform="translate(292,177)"/>
<path d="M0 0 C0.66 0.33 1.32 0.66 2 1 C1.67 2.32 1.34 3.64 1 5 C-0.32 5.33 -1.64 5.66 -3 6 C-2.01 4.02 -1.02 2.04 0 0 Z " fill="#2D5C72" transform="translate(178,385)"/>
<path d="M0 0 C0.66 0.33 1.32 0.66 2 1 C2 1.66 2 2.32 2 3 C2.99 3.33 3.98 3.66 5 4 C5 4.66 5 5.32 5 6 C1.34683329 4.75023244 0.21934164 4.32901247 -2 1 C-1.34 0.67 -0.68 0.34 0 0 Z " fill="#245470" transform="translate(163,355)"/>
<path d="M0 0 C2.375 0.25 2.375 0.25 5 1 C6.3125 3.0625 6.3125 3.0625 7 5 C6.01 5 5.02 5 4 5 C1.8125 2.5 1.8125 2.5 0 0 Z " fill="#24556D" transform="translate(138,336)"/>
<path d="M0 0 C1.65 0 3.3 0 5 0 C5.33 1.32 5.66 2.64 6 4 C4.35 4 2.7 4 1 4 C0.67 2.68 0.34 1.36 0 0 Z " fill="#2F89A4" transform="translate(239,332)"/>
<path d="M0 0 C2.875 0.25 2.875 0.25 6 1 C7.375 3.0625 7.375 3.0625 8 5 C2.25 3.125 2.25 3.125 0 2 C0 1.34 0 0.68 0 0 Z " fill="#2E86A2" transform="translate(186,301)"/>
<path d="M0 0 C0.33 0.66 0.66 1.32 1 2 C2.98 2 4.96 2 7 2 C5.6875 3.5 5.6875 3.5 4 5 C3.01 5 2.02 5 1 5 C0.67 3.35 0.34 1.7 0 0 Z " fill="#2E405C" transform="translate(307,299)"/>
<path d="M0 0 C1.65 0 3.3 0 5 0 C3.02579865 2.52259061 2.03254358 2.9929808 -1.1875 3.6875 C-2.5796875 3.8421875 -2.5796875 3.8421875 -4 4 C-4 3.34 -4 2.68 -4 2 C-2.68 2 -1.36 2 0 2 C0 1.34 0 0.68 0 0 Z " fill="#C84775" transform="translate(372,293)"/>
</svg>
