<svg width="128" height="128" viewBox="0 0 128 128" fill="none" xmlns="http://www.w3.org/2000/svg">
<g clip-path="url(#clip0_2_31)">
<path d="M64.8108 36.7787C59.7548 36.7787 51.9308 31.0293 43.6908 31.232C32.8108 31.376 22.8374 37.5413 17.2321 47.3067C5.94143 66.9067 14.3201 95.856 25.3334 111.787C30.7361 119.541 37.1094 128.267 45.5574 127.995C53.6641 127.648 56.7041 122.731 66.5441 122.731C76.3094 122.731 79.0774 127.995 87.6641 127.787C96.3948 127.648 101.936 119.893 107.269 112.064C113.435 103.061 115.995 94.3307 116.133 93.8507C115.925 93.7813 99.1628 87.3387 98.9601 67.9467C98.8214 51.7333 112.187 43.9787 112.811 43.632C105.189 32.4853 93.4881 31.2373 89.3974 30.96C78.7308 30.128 69.7974 36.7787 64.8108 36.7787ZM82.8268 20.4267C87.3228 15.0293 90.2934 7.48267 89.4668 0C83.0294 0.277333 75.2694 4.29333 70.6294 9.696C66.4694 14.4747 62.8748 22.1653 63.8401 29.504C70.9761 30.0587 78.3201 25.8347 82.8214 20.432" fill="#222222"/>
</g>
<defs>
<clipPath id="clip0_2_31">
<rect width="128" height="128" fill="white"/>
</clipPath>
</defs>
</svg>
