<svg width="128" height="128" viewBox="0 0 128 128" fill="none" xmlns="http://www.w3.org/2000/svg">
<g clip-path="url(#clip0_2_28)">
<path d="M128 64C128 28.654 99.346 0 64 0C28.654 0 0 28.654 0 64C0 95.944 23.404 122.422 54 127.223V82.5H37.75V64H54V49.9C54 33.86 63.555 25 78.174 25C85.176 25 92.5 26.25 92.5 26.25V42H84.43C76.4795 42 74 46.9335 74 51.995V64H91.75L88.9125 82.5H74V127.223C104.596 122.422 128 95.9445 128 64Z" fill="#1877F2"/>
<path d="M88.9125 82.5L91.75 64H74V51.995C74 46.933 76.4795 42 84.43 42H92.5V26.25C92.5 26.25 85.176 25 78.1735 25C63.555 25 54 33.86 54 49.9V64H37.75V82.5H54V127.223C57.3081 127.741 60.6515 128.001 64 128C67.3485 128.001 70.6919 127.741 74 127.223V82.5H88.9125Z" fill="white"/>
</g>
<defs>
<clipPath id="clip0_2_28">
<rect width="128" height="128" fill="white"/>
</clipPath>
</defs>
</svg>
