<svg width="128" height="128" viewBox="0 0 128 128" fill="none" xmlns="http://www.w3.org/2000/svg">
<path d="M44.5899 4.21C31.8008 8.64669 20.7714 17.0677 13.1219 28.236C5.47233 39.4044 1.60586 52.7314 2.09037 66.2597C2.57488 79.7879 7.38483 92.8042 15.8137 103.397C24.2426 113.989 35.8461 121.6 48.9199 125.11C59.5192 127.845 70.624 127.965 81.2799 125.46C90.9331 123.292 99.8578 118.654 107.18 112C114.801 104.863 120.332 95.7848 123.18 85.74C126.275 74.8167 126.826 63.3293 124.79 52.16H65.2699V76.85H99.7399C99.051 80.7879 97.5748 84.5463 95.3994 87.9003C93.2241 91.2544 90.3945 94.135 87.0799 96.37C82.8708 99.1543 78.1259 101.028 73.1499 101.87C68.1594 102.798 63.0405 102.798 58.0499 101.87C52.9918 100.824 48.2069 98.7366 43.9999 95.74C37.2414 90.9559 32.1667 84.1592 29.4999 76.32C26.7881 68.3339 26.7881 59.6761 29.4999 51.69C31.3982 46.0922 34.5363 40.9954 38.6799 36.78C43.4219 31.8675 49.4253 28.356 56.0315 26.6308C62.6377 24.9056 69.5915 25.0333 76.1299 27C81.2376 28.5679 85.9084 31.3074 89.7699 35C93.6566 31.1333 97.5366 27.2567 101.41 23.37C103.41 21.28 105.59 19.29 107.56 17.15C101.666 11.6648 94.7468 7.39657 87.1999 4.59C73.457 -0.400101 58.4197 -0.534206 44.5899 4.21Z" fill="white"/>
<path d="M44.59 4.21C58.4186 -0.53743 73.4559 -0.406856 87.2 4.58C94.7482 7.40564 101.664 11.6944 107.55 17.2C105.55 19.34 103.44 21.34 101.4 23.42C97.52 27.2933 93.6433 31.1533 89.77 35C85.9085 31.3074 81.2377 28.5679 76.13 27C69.5938 25.0264 62.6402 24.8913 56.0322 26.6094C49.4242 28.3276 43.4171 31.8326 38.67 36.74C34.5263 40.9554 31.3883 46.0522 29.49 51.65L8.76001 35.6C16.1801 20.8856 29.0275 9.63024 44.59 4.21Z" fill="#E33629"/>
<path d="M3.25999 51.5C4.3742 45.9779 6.22403 40.6303 8.75999 35.6L29.49 51.69C26.7781 59.6761 26.7781 68.3339 29.49 76.32C22.5833 81.6533 15.6733 87.0133 8.75999 92.4C2.4115 79.7632 0.475318 65.365 3.25999 51.5Z" fill="#F8BD00"/>
<path d="M65.2701 52.15H124.79C126.826 63.3193 126.275 74.8067 123.18 85.73C120.332 95.7748 114.801 104.853 107.18 111.99C100.49 106.77 93.7701 101.59 87.0801 96.37C90.3968 94.1328 93.2278 91.2489 95.4032 87.8913C97.5786 84.5337 99.0537 80.7714 99.7401 76.83H65.2701C65.2601 68.61 65.2701 60.38 65.2701 52.15Z" fill="#587DBD"/>
<path d="M8.75 92.4C15.6633 87.0667 22.5733 81.7067 29.48 76.32C32.1521 84.162 37.234 90.9589 44 95.74C48.2201 98.7226 53.0153 100.793 58.08 101.82C63.0706 102.748 68.1894 102.748 73.18 101.82C78.156 100.978 82.9008 99.1043 87.11 96.32C93.8 101.54 100.52 106.72 107.21 111.94C99.8889 118.597 90.9642 123.239 81.31 125.41C70.6541 127.915 59.5492 127.795 48.95 125.06C40.567 122.822 32.7368 118.876 25.95 113.47C18.7666 107.767 12.8996 100.58 8.75 92.4Z" fill="#319F43"/>
</svg>
