<svg width="128" height="128" viewBox="0 0 128 128" fill="none" xmlns="http://www.w3.org/2000/svg">
<path d="M119.787 32C115.68 33.8667 111.253 35.0933 106.667 35.68C111.36 32.8533 114.987 28.3733 116.693 22.9867C112.267 25.6533 107.36 27.52 102.187 28.5867C97.9734 24 92.0534 21.3333 85.3334 21.3333C72.8 21.3333 62.56 31.5733 62.56 44.2133C62.56 46.0267 62.7734 47.7867 63.1467 49.44C44.16 48.48 27.2534 39.36 16 25.5467C14.0267 28.9067 12.9067 32.8533 12.9067 37.0133C12.9067 44.96 16.9067 52 23.0934 56C19.3067 56 15.7867 54.9333 12.6934 53.3333V53.4933C12.6934 64.5867 20.5867 73.8667 31.04 75.9467C27.6845 76.869 24.1602 76.9968 20.7467 76.32C22.1953 80.8666 25.0322 84.8448 28.8588 87.6956C32.6854 90.5464 37.3091 92.1264 42.08 92.2133C33.9929 98.616 23.9681 102.077 13.6534 102.027C11.84 102.027 10.0267 101.92 8.21338 101.707C18.3467 108.213 30.4 112 43.3067 112C85.3334 112 108.427 77.12 108.427 46.88C108.427 45.8667 108.427 44.9067 108.373 43.8933C112.853 40.6933 116.693 36.64 119.787 32Z" fill="#1DA1F2"/>
</svg>
